<svg data-name="Layer 1" id="Layer_1" viewBox="0 0 130 130" xmlns="http://www.w3.org/2000/svg"><defs><style>.cls-5{opacity:.35}.cls-2{fill:#353949}.cls-3{fill:#eaeae9}.cls-4{fill:#45ba8e}.cls-5{fill:#ccc}</style></defs><circle cx="62" cy="55.47" r="46.5" opacity=".35" fill="#7cbaa8"/><path class="cls-2" d="M37.64 122.53c-5.73 0-10.4-3.74-10.4-8.33a1.5 1.5 0 013 0c0 2.94 3.32 5.33 7.4 5.33s7.4-2.39 7.4-5.33a1.5 1.5 0 013 0c-.04 4.59-4.66 8.33-10.4 8.33z"/><path class="cls-2" d="M55.44 122.53c-5.73 0-10.4-3.74-10.4-8.33a1.5 1.5 0 013 0c0 2.94 3.32 5.33 7.4 5.33s7.4-2.39 7.4-5.33a1.5 1.5 0 013 0c0 4.59-4.66 8.33-10.4 8.33z"/><path class="cls-2" d="M73.24 122.53c-5.73 0-10.4-3.74-10.4-8.33a1.5 1.5 0 013 0c0 2.94 3.32 5.33 7.4 5.33s7.4-2.39 7.4-5.33a1.5 1.5 0 013 0c0 4.59-4.64 8.33-10.4 8.33z"/><path class="cls-2" d="M91 122.53c-5.73 0-10.4-3.74-10.4-8.33a1.5 1.5 0 013 0c0 2.94 3.32 5.33 7.4 5.33s7.4-2.39 7.4-5.33a1.5 1.5 0 013 0c.04 4.59-4.62 8.33-10.4 8.33zm-71.16 0h-8.65a1.5 1.5 0 110-3h8.65c4.08 0 7.4-2.39 7.4-5.33a1.5 1.5 0 013 0c0 4.59-4.66 8.33-10.4 8.33z"/><path class="cls-2" d="M117.5 122.53h-8.65c-5.73 0-10.4-3.74-10.4-8.33a1.5 1.5 0 013 0c0 2.94 3.32 5.33 7.4 5.33h8.65a1.5 1.5 0 010 3z"/><path class="cls-3" d="M11.29 43.71a3.34 3.34 0 010-.34 5.44 5.44 0 017.91-4.86 9.49 9.49 0 0117.31 4.56h2.79a5.94 5.94 0 110 11.93H13.94a5.94 5.94 0 01-2.65-11.25z"/><path class="cls-2" d="M39.3 56.07H13.94a7.44 7.44 0 01-4.15-13.61A7 7 0 0116.72 36a6.87 6.87 0 012 .28 11 11 0 0119.11 4.87h1.47a7.44 7.44 0 110 14.89zM16.72 39a4 4 0 00-3.95 4v.11a1.6 1.6 0 01-.77 1.55 4.44 4.44 0 002 8.41h25.3a4.44 4.44 0 100-8.89h-2.81A1.5 1.5 0 0135 42.81 8 8 0 0020.41 39a1.5 1.5 0 01-1.92.49 3.9 3.9 0 00-1.77-.49zm-5.42 4.28z"/><path class="cls-3" d="M117.84 24.77a4.21 4.21 0 000-.43 6.87 6.87 0 00-10-6.13A12 12 0 0086.05 24H82.5a7.5 7.5 0 000 15h32a7.49 7.49 0 003.34-14.2z"/><path class="cls-2" d="M114.5 40h-32a9 9 0 010-18h2.24a13.48 13.48 0 0123.66-6.08 8.26 8.26 0 012.6-.42 8.39 8.39 0 018.36 7.94A9 9 0 01114.5 40zm-32-15a6 6 0 000 12h32a6 6 0 002.67-11.36 1.5 1.5 0 01-.82-1.49V24a1.73 1.73 0 000-.18 5.38 5.38 0 00-5.35-5.35 5.31 5.31 0 00-2.42.58 1.5 1.5 0 01-1.92-.49 10.48 10.48 0 00-19.11 5 1.5 1.5 0 01-1.5 1.44z"/><path class="cls-3" d="M45.15 62.9L33.6 48.27H20.77L30.1 62.9"/><path class="cls-4" d="M47.73 67.02L36.19 52.4H23.35l9.34 14.62"/><path class="cls-3" d="M86.31 62.82l-4.16-10.34H56.34l-2.63 10.34"/><path class="cls-4" d="M88.31 68.15l-4.59-11.42h-28.5l-2.91 11.42"/><path class="cls-3" d="M119.81 76.15H84.06l-8.5 9h-64l3.5 23h82.5a112.26 112.26 0 0022.25-32z"/><path class="cls-5" d="M113.81 77.08A211.51 211.51 0 0195.15 103H14.27l.79 5.21 81.51.93a112.26 112.26 0 0022.25-32z"/><path d="M13.25 89.34h64l8.5-9h32.57q.76-1.53 1.49-3.12H84.06l-8.5 9h-64l1 6.87h1.21z" fill="#7cbaa8"/><path class="cls-3" d="M106.81 76.15L93.56 62.9H24.65l-8.56 22.75 59.47-.5 8.5-9h22.75z"/><path class="cls-5" d="M102.98 72.12H82.27l-8.79 9-55.33.11-2.06 4.22 59.48-.5 8.5-9h22.75l-3.84-3.83z"/><path class="cls-2" d="M97.56 109.65h-82.5a1.5 1.5 0 01-1.48-1.27l-3.5-23a1.5 1.5 0 011.48-1.73h63.36L83 75.12a1.5 1.5 0 011.09-.47h35.75a1.5 1.5 0 011.37 2.12 112.65 112.65 0 01-22.59 32.47 1.5 1.5 0 01-1.06.41zm-81.21-3H97a113.11 113.11 0 0020.5-29H84.71l-8.06 8.53a1.5 1.5 0 01-1.09.47H13.31z"/><path class="cls-2" d="M16.09 86a1.5 1.5 0 01-1.39-2.05l8.55-21.58a1.5 1.5 0 011.39-.95h68.92a1.5 1.5 0 011.06.44l13.25 13.25a1.5 1.5 0 01-2.12 2.12L92.94 64.4H25.67L17.49 85a1.5 1.5 0 01-1.4 1z"/><path class="cls-2" d="M86.56 64.4a1.5 1.5 0 01-1.39-.94l-3.85-9.56h-24l-2.39 9.37a1.5 1.5 0 01-2.93-.74L54.68 52a1.5 1.5 0 011.45-1.13h26.2a1.5 1.5 0 011.39.94L88 62.34a1.5 1.5 0 01-1.39 2.06z"/><path class="cls-2" d="M77.62 53.9a1.5 1.5 0 01-1.39-.9l-3.85-9.6h-10a1.5 1.5 0 010-3h11a1.5 1.5 0 011.39.94L79 51.84a1.5 1.5 0 01-1.39 2.06zM30.11 64.4a1.5 1.5 0 01-1.27-.69l-9.33-14.63a1.5 1.5 0 011.26-2.31H33.6a1.5 1.5 0 011.18.57L46.32 62A1.5 1.5 0 1144 63.83L32.88 49.77h-9.37l7.86 12.32a1.5 1.5 0 01-1.26 2.31zm45.45 13.25H24.65a1.5 1.5 0 110-3h50.91a1.5 1.5 0 010 3zm3.25-7.01H50.1a1.5 1.5 0 010-3h28.71a1.5 1.5 0 010 3zm-46.02 0h-3a1.5 1.5 0 110-3h3a1.5 1.5 0 010 3zm9.52 0h-3a1.5 1.5 0 010-3h3a1.5 1.5 0 010 3zm56.5 0h-10.5a1.5 1.5 0 010-3h10.5a1.5 1.5 0 010 3zm-1.73 23.01a5.9 5.9 0 115.9-5.9 5.91 5.91 0 01-5.9 5.9zm0-8.8a2.9 2.9 0 102.9 2.9 2.9 2.9 0 00-2.9-2.9zM72 95.72H43.71a1.5 1.5 0 110-3H72a1.5 1.5 0 010 3zm-48.48 0h-3.39a1.5 1.5 0 010-3h3.39a1.5 1.5 0 110 3zm10.73 0h-3.39a1.5 1.5 0 010-3h3.39a1.5 1.5 0 010 3zM73 16.5a1.5 1.5 0 01-1.49-1.38A5.06 5.06 0 0066 10.48a1.5 1.5 0 11-.24-3 8.06 8.06 0 018.69 7.39 1.5 1.5 0 01-1.37 1.62z"/><path class="cls-2" d="M72.9 16.5h-.12a1.5 1.5 0 01-1.37-1.62 8.06 8.06 0 018.69-7.39 1.5 1.5 0 11-.24 3 5.06 5.06 0 00-5.45 4.64 1.5 1.5 0 01-1.51 1.37zm36.1 39a1.5 1.5 0 01-1.49-1.38 5.06 5.06 0 00-5.51-4.64 1.5 1.5 0 01-.24-3 8.06 8.06 0 018.69 7.39 1.5 1.5 0 01-1.37 1.62z"/><path class="cls-2" d="M108.9 55.5h-.12a1.5 1.5 0 01-1.37-1.62 8.06 8.06 0 018.69-7.39 1.5 1.5 0 11-.24 3 5.06 5.06 0 00-5.45 4.64 1.5 1.5 0 01-1.51 1.37zM26.48 28A1.5 1.5 0 0125 26.62 5.07 5.07 0 0019.53 22a1.5 1.5 0 01-.24-3A8.06 8.06 0 0128 26.38 1.5 1.5 0 0126.6 28z"/><path class="cls-2" d="M26.41 28h-.12a1.5 1.5 0 01-1.37-1.62A8.06 8.06 0 0133.6 19a1.5 1.5 0 11-.24 3 5.07 5.07 0 00-5.45 4.64 1.5 1.5 0 01-1.5 1.36z"/></svg>