<svg viewBox="0 0 128 128" xmlns="http://www.w3.org/2000/svg"><path d="M70.3 27.3H56.1c-1 0-1.9.8-1.9 1.9v6.7c0 1 .8 1.9 1.9 1.9h14.2c1 0 1.9-.8 1.9-1.9v-6.7c0-1.1-.8-1.9-1.9-1.9zm-1.8 6.6H58V31h10.5v2.9zm25.8-5.6c.4 0 .8-.1 1.1-.4l16.7-12.2c.8-.6 1-1.8.4-2.6s-1.8-1-2.6-.4L93.2 24.9c-.8.6-1 1.8-.4 2.6.3.6.9.8 1.5.8zm1.1 15.6c-.8-.6-2-.4-2.6.4-.6.8-.4 2 .4 2.6l16.7 12.2c.3.2.7.4 1.1.4.6 0 1.1-.3 1.5-.8.6-.8.4-2-.4-2.6L95.4 43.9zm-1.1-6.2H111c1 0 1.9-.8 1.9-1.9S112 34 111 34H94.3c-1 0-1.9.8-1.9 1.9s.8 1.8 1.9 1.8zm-63.2 6.2L14.4 56.1c-.8.6-1 1.8-.4 2.6.4.5.9.8 1.5.8.4 0 .8-.1 1.1-.4l16.7-12.2c.8-.6 1-1.8.4-2.6s-1.8-1-2.6-.4zM14.4 15.8L31.1 28c.3.2.7.4 1.1.4.6 0 1.1-.3 1.5-.8.6-.8.4-2-.4-2.6L16.6 12.7c-.8-.6-2-.4-2.6.4-.7.9-.5 2 .4 2.7zm1.1 22.1h16.7c1 0 1.9-.8 1.9-1.9 0-1-.8-1.9-1.9-1.9H15.5c-1 0-1.9.8-1.9 1.9 0 1 .8 1.9 1.9 1.9z"/><path d="M118.5 121.9h-11.2c-1.1-4.7-4.8-8.3-9.6-9.2-2.1-3.7-6.1-6.1-10.5-6.1-1.1 0-2.2.2-3.3.5l-1-12.9c0-.2-.1-.3-.1-.5l-1.3-16.3c.1-.3.2-.6.2-.9l-1.2-15.2c0-.3-.1-.6-.3-.9l-.5-6h3.6c1 0 1.9-.8 1.9-1.9V40.6c0-1-.8-1.9-1.9-1.9h-2.5V26.2h5.1c.5 0 1-.2 1.4-.6.4-.4.5-.9.5-1.5-1.4-12.5-11.9-22-24.5-22s-23.2 9.4-24.5 22c-.1.5.1 1.1.5 1.5.4.4.9.6 1.4.6h5.1v12.6h-2.5c-1 0-1.9.8-1.9 1.9v11.9c0 1 .8 1.9 1.9 1.9H46l-4.6 67.4H7.9c-1 0-1.9.8-1.9 1.9s.8 1.9 1.9 1.9h110.6c1 0 1.9-.8 1.9-1.9s-.9-1.9-1.9-1.9zm-37.2 0h-8.7c.8-2.7 3.1-4.9 5.9-5.7.6-.1 1-.5 1.2-1 1.4-2.9 4.3-4.8 7.5-4.8s6.2 1.9 7.5 4.8c.3.6.9 1 1.5 1.1 3.3.3 6.1 2.5 7.1 5.6h-22zm-36.2 0l.7-10.4h31.7c-.3.4-.6.9-.9 1.4-4.1 1.4-7.2 4.9-8 9H45.1zm18.1-116c10 0 18.4 7 20.5 16.6H42.8c2-9.6 10.4-16.6 20.4-16.6zM49.3 26.2h27.8v12.4H49.3V26.2zM45 42.5h36.4v8.2H45v-8.2zm2 53.8h32.4l.9 11.5H46.2l.8-11.5zm1.6-21.5l.8-11.5h27.5l.9 11.5H48.6zm-.5 3.8h29.8L79 92.5H47.2l.9-13.9zm1.7-24.2H76l.4 5.2h-27l.4-5.2z"/></svg>