<svg width="84" xmlns="http://www.w3.org/2000/svg" height="134"><path d="M13.88 120.01c0-7.2 12.6-13 28.1-13 15.6 0 28.2 5.8 28.2 13s-12.6 13-28.2 13c-15.5 0-28.1-5.8-28.1-13zm28.1-10.2s-9.2-.1-15.9 3.1c-6.3 3.1-6.1 7.1-6.1 7.1s-.5 3.8 6.3 7.1 15.7 3.1 15.7 3.1 8.9.3 16.2-3.2c5.8-2.7 5.9-7 5.9-7s0-4.1-6.3-7.2c-6.6-3.1-15.8-3-15.8-3z" stroke="#eb6d71" fill="#eb6d71"/><g stroke="red" fill="red"><path d="M29.05 41.46c0-7.1 5.8-12.9 13-12.9 7.1 0 13 5.8 13 12.9 0 7.2-5.9 13-13 13-7.2 0-13-5.8-13-13z"/><path d="M42.03 122.7L8.23 64.5c-8.1-10.9-7.2-25.1-7.2-25.1 1.4-19.6 15.9-29.9 15.9-29.9 17.5-14.1 38.6-6.4 38.6-6.4 13.4 4.3 25.8 17 27.4 33.8 1.5 16.9-6.7 27.7-6.7 27.7l-34.2 58.1zm-26-81.2c0 14.3 11.7 25.9 26 25.9 14.4 0 26-11.6 26-25.9 0-14.3-11.6-25.9-26-25.9-14.3 0-26 11.6-26 25.9z"/></g></svg>