<svg fill="#fff" viewBox="0 0 512 512" xmlns="http://www.w3.org/2000/svg"><path d="M308.4 391.8h-.1c-2.2-.1-3.9-1.9-3.8-4.1L318.4 11c.1-2.2 2-3.9 4.1-3.8 2.2.1 3.9 1.9 3.8 4.1L312.4 388c-.1 2.2-1.9 3.8-4 3.8z"/><path d="M239.2 504.7c-35.7 0-71.1-4.9-105.5-14.5-41-11.5-82.3-25.8-107.1-52.2-1.7-1.8-7.6-12-11.8-20-10.2-19.5-9.1-22.2-8.3-24 .7-1.7 2.4-2.8 4.3-2.9l491.3-8.9h.1c2.1 0 3.9 1.7 3.9 3.9 0 2-1.5 3.7-3.4 4-2.9 1.4-11.8 12.1-15.7 16.7-3.2 3.8-5.1 6.1-6.3 7.2-59 54.7-138.9 86.9-224.8 90.5-5.6.1-11.1.2-16.7.2zM14.5 398.9c2.9 8.5 15.2 30.6 17.9 33.8 23.5 25 63.6 38.8 103.5 50 38.9 10.9 79.1 15.6 119.6 13.9 84.1-3.6 162.2-35 219.8-88.4.9-.8 3.2-3.6 5.6-6.5 4-4.8 7.2-8.6 9.9-11.4-69.9 1.2-435.3 7.8-476.3 8.6zm41.8-15.1c-1.5 0-3.3-.4-4.8-1.7-3.2-2.8-2.3-7-2-8.6 1.5-7.4 3-14.9 4.5-22.3 8.5-42.5 17.2-86.5 32.2-128.1 18.7-51.7 54-92.4 80.3-117.3 41-39 93.6-70.2 152.1-90.2 2.1-.7 4.3.4 5 2.5.7 2-.3 4.1-2.2 4.9-3.4 2.7-9.6 23.5-11.6 30.3-.9 3-1.6 5.4-2.1 6.7-5 14.1-9.5 28.6-13.3 43.1-6.1 23.4-10.6 47.3-13.4 71.1-.6 5.1-1.1 10.1-1.5 14.9-2.2 25.3-2.2 48.1.1 69.6 2.6 24.4 5.6 48 14.8 69.6l.9 2.2c2.9 6.9 6 13.9 8.3 21.3.2.5.3 1.1.5 1.6 1.3 4.1 2.8 8.7 2.5 13.2-.1 1.3-.4 5.2-3.3 7.2-2.9 2.1-6.5 1.2-9.9.3-.5-.1-1.1-.3-1.6-.4-.9-.2-1.7-.4-2.6-.6-35-8.2-71-12.6-107.1-13-37-.4-70.3 8-100.7 17.1-6 1.8-13.9 4.1-22 6.1-.6.2-1.8.5-3.1.5zm253.9-357c-53.1 19.7-100.7 48.8-138.3 84.6-36.3 34.5-64.1 75.1-78.3 114.3-14.8 41-23.5 84.7-31.9 126.9-1.5 7.5-3 14.9-4.5 22.4-.1.3-.1.6-.1.8.1 0 .3-.1.5-.1 7.9-2 15.7-4.3 21.6-6 31-9.3 64.9-17.8 103-17.4 36.7.4 73.3 4.8 108.8 13.2.9.2 1.7.4 2.6.6.6.1 1.2.3 1.7.4 1.1.3 2.4.6 3.2.7.1-.3.1-.7.2-1.2.2-3-1-6.8-2.1-10.2-.2-.6-.4-1.1-.5-1.7-2.2-7-5.2-13.9-8-20.5l-.9-2.2c-9.6-22.5-12.8-46.8-15.4-71.8-2.3-22-2.4-45.2-.1-71.1.4-4.9.9-10 1.6-15.2 2.8-24.1 7.4-48.4 13.6-72.2 3.8-14.8 8.4-29.5 13.5-43.8.4-1.2 1.1-3.6 2-6.3 3-11 5.5-18.7 7.8-24.2z"/><path d="M312.5 374.7c-1.7 0-3.3-.4-4.6-1.3-1.4-1-3.7-3.6-2.3-8.9.6-2.1 1.6-3.8 2.5-5.3l.2-.4c6.6-10.7 9.9-23.6 13.1-36l1.5-5.7c4.6-17.3 8.2-33.5 11-49.3 6.4-36.2 8.5-68.9 6.3-100-1.3-18.7-3.2-37.6-5.7-56.2-.9-6.7-2-13.4-3-20-1.8-11.1-3.7-22.5-4.5-33.9v-.6c-.9-11.4-1.7-23.1-7.8-32.1-.8-.8-1.2-1.9-1.2-3.1 0-1.7 1.1-3.3 2.6-4.1 1.4-.8 3.1-.7 4.5.1.7.2 1.3.6 1.8 1.1 41.9 45 72.3 101.4 87.7 162.9 9.4 37.4 12.6 75.3 9.6 112.7l-.3 3.7c-1.2 14.8-2.4 30.1-7.7 44.8-.6 1.7-1.4 3.9-3.4 5.6-2.7 2.4-6.1 2.6-8.8 2.6-5.6-.1-11.1-1.2-16.3-2.3-5.3-1.1-10.3-2.1-15.3-2.2h-.4c-9.5 0-19.6 3.6-30.8 11.1-2.5 1.7-4.9 3.7-7.3 5.8-2.5 2.2-5.2 4.5-8.1 6.4 0-.2-7.2 4.6-13.3 4.6zm19.9-337.9c1.5 6.5 2 13.2 2.4 19.5v.6c.8 11.1 2.7 22.4 4.4 33.3 1.1 6.6 2.2 13.5 3.1 20.2 2.5 18.7 4.4 37.8 5.7 56.7 2.2 31.8.1 65.1-6.4 101.9-2.9 16-6.5 32.4-11.1 49.9l-1.5 5.7c-3.3 13-6.8 26.4-14 38.2l-.3.4c-.7 1.1-1.4 2.2-1.6 3.2 0 .1-.1.3-.1.4 2.1-.3 6.1-2 8.3-3.5 2.5-1.7 4.9-3.7 7.3-5.8 2.6-2.2 5.2-4.5 8.1-6.4 12.7-8.4 24.4-12.5 35.6-12.4 5.8.1 11.4 1.2 16.8 2.3 5.1 1.1 10 2.1 14.9 2.2 1.8 0 2.9-.2 3.4-.6.5-.4.9-1.5 1.2-2.5 5-13.7 6.1-27.8 7.2-42.7l.3-3.7c2.9-36.6-.2-73.6-9.4-110.2-13.4-54.5-39.1-105-74.3-146.7z"/></svg>