<svg viewBox="0 0 1000 1000" xmlns="http://www.w3.org/2000/svg"><circle cx="225.928" cy="483.898" r="20.67" fill="#fff"/><path d="M167.038 410.238h5.77l-9.17 53a117.25 117.25 0 009.26 69.53l2.69 5.78c3.06 6.56 9.36 11 16.56 11.67l192.03 17.83 111.22-111.22c-74.42-.29-148.83-7.52-222.23-21.74h-.01a50.322 50.322 0 01-35.7-27.47 50.148 50.148 0 00-18.54-20.7 50.19 50.19 0 00-26.71-7.69h-25.17c-8.42 0-15.23 6.82-15.23 15.23v.55c0 8.41 6.809 15.23 15.23 15.23zm58.89 35.99c20.77 0 37.67 16.9 37.67 37.67 0 20.77-16.9 37.67-37.67 37.67s-37.67-16.9-37.67-37.67c0-20.77 16.9-37.67 37.67-37.67zm606.324-66.999h-24.46a50.273 50.273 0 00-45.259 28.388 50.274 50.274 0 01-35.7 27.471 1193.002 1193.002 0 01-151.769 19.382L456.657 572.877a1193.083 1193.083 0 00153.666-4.315l197.521-18.345a20.35 20.35 0 0016.563-11.667 137.637 137.637 0 0010.865-81.597l-8.081-46.719h5.499c8.81 0 15.904-7.349 15.485-16.252-.393-8.338-7.575-14.753-15.923-14.753zm-227.328 31.396l79.955-70.646c6.411-5.665 6.717-15.563.667-21.613l-13.033-13.032c-6.049-6.05-15.948-5.744-21.613.667l-70.646 79.955c-3.327 3.766-4.397 8.771-3.286 13.341L390.176 586.09c-4.57-1.112-9.576-.042-13.341 3.285l-79.955 70.646c-6.411 5.665-6.717 15.563-.668 21.613l13.033 13.032c6.05 6.05 15.948 5.744 21.613-.667l70.646-79.955c3.327-3.766 4.397-8.771 3.285-13.341L591.582 413.91c4.571 1.112 9.576.042 13.342-3.285z" fill="#fff"/></svg>