<svg height="512" viewBox="0 0 60 58" width="512" xmlns="http://www.w3.org/2000/svg"><path d="M14 39h32a8.009 8.009 0 008-8v-2h-1a1 1 0 00-1 1 6.994 6.994 0 01-7 7H15a7.008 7.008 0 01-7-7 .965.965 0 00-.287-.694C7.36 28.945 7.121 29 6 29v2a8.009 8.009 0 008 8z"/><path d="M48.334 0l-5.668 5.66a4 4 0 00-1.16 3.2 4.19 4.19 0 01-1.129 3.325L17.536 35h2.831l21.426-21.4A3.836 3.836 0 0145 12.459a4 4 0 003.33-1.145L54 5.654zM32.829 25.382l-1.417 1.415L39.633 35h2.83zM17.337 5.663L11.664 0 6 5.66l5.67 5.654A4.01 4.01 0 0015 12.459a3.865 3.865 0 013.207 1.141l8.961 8.951 1.416-1.415-8.961-8.951A4.2 4.2 0 0118.5 8.856a4 4 0 00-1.163-3.193zM59 52c-5.166 0-5.442 4-9.671 4s-4.484-4-9.671-4c-5.141 0-5.444 4-9.665 4s-4.482-4-9.667-4c-5.162 0-5.438 4-9.664 4S6.183 52 1 52a1 1 0 000 2c4.23 0 4.479 4 9.662 4 5.162 0 5.438-4 9.664-4s4.48 4 9.667 4c5.222 0 5.37-4 9.665-4 4.235 0 4.483 4 9.671 4 5.22 0 5.378-4 9.671-4a1 1 0 000-2z"/><path d="M59 46a7.569 7.569 0 00-2.48.389c2.179-4.67 1.908-11.716-.52-15.706A10.017 10.017 0 0146 41H14A10.011 10.011 0 014 30.683c-2.431 3.995-2.7 11.044-.519 15.706A7.607 7.607 0 001 46a1 1 0 000 2c4.23 0 4.479 4 9.662 4 5.162 0 5.438-4 9.664-4s4.48 4 9.667 4c5.222 0 5.37-4 9.665-4 4.235 0 4.483 4 9.671 4 5.22 0 5.378-4 9.671-4a1 1 0 000-2z"/></svg>