<svg xmlns="http://www.w3.org/2000/svg" viewBox="0 0 100 98.026" height="98" width="100"><path d="M51.51 48.55c-.1 0 .7 3.9.4 7.3-.3 3.4-.4 5.6 1.3 5.8 1.8.2 7.1-7.1 7.6-14.6 0 0-4.8-.3-9.3 1.5z" stroke="#445771" fill="#445771"/><path d="M37.9 11.1s-3.4-4.2-8.8-7.8c0-.4-1.4-.7-.7-1.9.6-1.1 16.7-.4 26.5 9.1 0 0 15.1-1.7 28.5 8 0 0 10.6 7.3 9.3 15.7 0 0 7.2 4 6.2 8.7-1 4.7-4.9 5.6-11 5-6.1-.6-23.4-2.3-40.1 1.5-16.7 3.9-21 7.7-25.3 10.8-4.2 3-8.2 9.1-5.5 11.9 2.8 2.9 6.1-.9 12.4 2 6.3 2.8 8.7 8.4 7.9 8.9-.8.4-4.3-.9-9-.4-4.8.5-4.9 1.3-6.1 0-1.3-1.2-2-2-2.5-1.9-.6.1 1.1 3.2.6 4-.6.8-4.5 2.3-6.6 4.2-2 1.8-3.2 4.7-2.9 8.1 0 0-.6.4-2.7-1.8s-4.7-8.5-1.9-15.7c0 0 .9-1.8 0-3.5-1-1.6-9.2-19.8-2.8-35.3 6.4-15.4 22.4-27.2 34.5-29.6z" stroke="#445771" fill="#445771"/><path d="M80.42 30.74c0-2.1 1.8-3.9 4-3.9 2.1 0 3.9 1.8 3.9 3.9 0 2.2-1.8 3.9-3.9 3.9-2.2 0-4-1.7-4-3.9z" stroke="#fff" fill="#fff"/><path d="M81.07 30.79c0-1.8 1.5-3.3 3.3-3.3 1.8 0 3.3 1.5 3.3 3.3 0 1.8-1.5 3.2-3.3 3.2-1.8 0-3.3-1.4-3.3-3.2z" stroke="#445771" fill="#445771"/><path d="M83.77 30c0-.8.7-1.5 1.5-1.5.9 0 1.6.7 1.6 1.5 0 .9-.7 1.5-1.6 1.5-.8 0-1.5-.6-1.5-1.5zm-1.67 1.98c0-.5.4-.9.9-.9s1 .4 1 .9-.5.9-1 .9-.9-.4-.9-.9zm-2.56 8.11s7.7 5 19.4 2.7c-1.1 4.8-4.9 5.7-11 5.1-6.1-.6-23.4-2.3-40.1 1.5-16.7 3.8-21.1 7.7-25.3 10.8 0 0-.1-5.5 12.1-12.8 12.2-7.3 30.8-6.5 44.9-7.3z" stroke="#fff" fill="#fff"/><path d="M44.33 39.36s-4.3 1.8-7.1 5.2c-2.9 3.5-5.4 11-6.4 13.7-.9 2.8-.8 3.8.5 3.9 1.3.1 8.5-2.4 14.1-9.4 5.6-7.1 7.2-8.8 6.9-10-.3-1.2-3.4-4.4-8-3.4z" stroke="#445771" fill="#445771"/></svg>