<svg xmlns="http://www.w3.org/2000/svg" height="128" width="128" style="animation:earthroll 10s ease infinite;animation-delay:10s" stroke-width="2"><g transform="translate(1 1)"><path d="M126 63c0-34.8-28.2-63-63-63S0 28.2 0 63s28.2 63 63 63 63-28.2 63-63z" id="shape1" stroke="#fff" stroke-width="2" fill="transparent"/></g><g transform="translate(3.26 1.76)" stroke="#fff"><path d="M.6 9.3c2.4 0 2.9-.7 2.9-1.2 0-.6 0-1.4.5-1.9s1-.8 1-.8.5.3 0 1.5-1 1.7-1 1.7l1.7.3s1-.6 1-.3 1-.5 1.4-.5c.4 0 .9-1.2.9-1.2s-.3-.4 0-.7c.3-.3-.5-1.2-.5-1.2s-.6-.7-1-1.6c-.5-.8-.2 0-.5-.8C6.7 1.7 5.5.3 5.8.3h-.3S5-.3 4.3.2c-.6.5-.8.3-.8 1.3v1.7c0 .6-.9.9-1.1 1.4-.2.4-1.1.8-1.4.8-.4 0-1.4.2-.8.8.6.7 1.1.7 1.4.7.3 0-1 1.6-1 2v.4z" id="shape2" transform="translate(29.73 25.42)" fill="transparent"/><path d="M44.8 50.7l.1 1.2s.7 1 .9 1.2c.3.1 1.8.8 1.8 1.3s1 1.5 1 1.5l1 1.1s1.3 1.9 1.3 2.7c0 .8.8.8.7.6 0 0 1.1.4 1.1.8s.9 2.7 2.2 2.7c1.2 0 2 1.4 2 1.4l1.4.8s-.9 2.4 2.3.9c1.1-.5 1.9-1.7 1.9-1.7l2.4-.6s.5.5 0 2.3c-.5 1.9-.3 4-.9 4.5-.5.6-1.2 1.1-2 2.8-.8 1.7-2 3.2-2.7 4.2-.6 1.1-2.7 3.5-2.7 5.3 0 1.9-.3 2.8.7 3.9 1 1 1 1.4 1 3.3 0 1.8.3 2.9-1.4 3.9-1.7 1.1-2.5 2.5-2.5 3.1 0 .5.6 2.7-1.1 5.4-.7 1.2 0 0 0 0s0 1.3-1.6 4.5c-1.7 3.2-2.7 2.9-4.1 3.3-1.4.4-2.4 1.6-2.4 1.6s-.5.2-2-2.7c-1.6-2.9-1.2.2-1.9-1-.8-1.2-1.7-3.3-1.8-3.6-.2-.3-.4-.5-1-1.7-.7-1.2-1.1-1.1-1.8-1.8s-1.6-3.7-1.2-6.8c.2-.9-1.1-3.2-2.3-4.6-1.1-1.5-2.4-2.4-3.5-2.9-1.2-.6-1.3-2.7-1.4-3.5-.1-.8-1.6-3.6-2.9-3-1.2.7-1.6 1.2-2.3-.3-.7-1.6-4.9 2-5.8 2.9-.9 1-1.9-.5-4.8.8s-1.8 0-4.6-.8-1.4-2.4-4.6-3.8c-3.1-1.5-2-2.3-2-3 0-.8.3-4-.8-5.9-1-1.8-.5-3.6.3-5.8.9-2.2 1.7-3.9 2.8-4.7 1.1-.8-.4-1.4 0-2.7.4-1.3 2.9-3.2 2.9-5.1 0-2 .5.8 2.1 0 1.5-.8 3.3-1.5 4.4-2.7 1.2-1.2 2.3-1.4 3.7-1.7 1.4-.3 3.3-1.1 4.1-1.1.7 0 .9 1.5 1 1.8.1.2-1.3 1.2 0 1.6 1.3.3 3.6.9 4.3.9.8 0 4.9 2 5.4 0 .5-2.3 1.7-2.3 3.3-1.9 1.5.4 2.4.7 3.7 0 1.2-.6 3-1.3 5.2-1.3 2.1 0 1.5-5.3 1.5-6.1 0-.8-1.3-1-2-.2-.8.7-.4 1.5-1.9.9-1.6-.7-1.9 1.8-4.2.5-2.4-1.3-.8-2.4-2.8-3.1-2-.7-3.5 1.4-2.8 1.7.6.2 3.5 4.1.6 2.5-2.9-1.6-1.8-3.6-2.8-2.9-1 .6-.2-.6-1.5-1.6-1.8-1.3-4.3-1.1-4.3-2.1s-1.3-1.9-1.7-1.1c-.4.8-.2 2.2 1.7 3 1.9.8 3.2 1.5 3.5 1.8.4.3.4.6-.5.6s1.1 1.3.1 2.3c-.9 1-2.1 1.2-1.6 1.2.4-.1 2.6 2.3-1.5.8-4.1-1.5-.1-.8.9-1.4 1-.6 4-2.3-1.8-2.9-5.9-.5-1.8-.4-2.8-1.9-.9-1.5-2.5.3-2.5.6s-1.9.7-2.6.7c-.8 0-.5 2.8-2.2 4.1-1.7 1.2-.6 2.2-1 3.3-.4 1-1.9 3.1-5.9 1.6-3.9-1.6-.8-1.4-1.6-3.4-1.2-2.6 2.4-4.6 2-4.3 0 0 4.5-1.9 3.7-3.1-.8-1.3-.8-1.5-2.4-1.5-1.7 0-1-1.8 1.3-2.3 2.2-.4 2.4-2.7 4.2-4.1 1.7-1.4.2-1.7 2.5-2.5s-.3-3.9 2.4-4.6c1.3-.3 1.5 2.6 2.1-.5.2-1.1-1.4-2.3-1.8-2.6-.3-.4-1.7 3.6-2.7 2.6-1-1.1-1.8-1.6-1-3.1.6-1 4.4-4.9 4.8-6.3.4-1.5 1-2.7 3.5-4.1 2.4-1.5 7.1-4 8.9-3.1 1.7 1 3 2.4 4.6-.3 1.6-2.7 1.8-1.5 1.8-1.5-2.1-1.5-3.3-2.7-3.8-3.7-.4-1.1 1.8-1.5 1.7 0-.3 3.5 7.4 2.8 7.4 2.8s-2.3-.4-2.6-1.3c-.4-.9 1.5-.7 3.1-.3 1.5.3.8-.9-.5-1.2-1.4-.4-.5-1.6-.8-1.3-.3.2-1.6-.1-1.6-.1C40 0 55.5.3 71.3 11.7s21.2 28.4 23.3 35.5c0 0 0 0 0 0s-.7-.5-.7 0c.1.6 1.8 7.7 1.8 9.2 0 1.2-.4 3-.4 3.5 0 .6-.2-2.4-1.4-3.5-1.2-1.4 0 3.5 0 3.5s1.8 6.1 1.8 7.2c0 1-.4 4.6-.4 2.2 0 0-.1 6.6-.7 6.8-.7.1.4-6.7-1.3-10.9-.8-1.8 1.3.8 1.3 0s-1.3-5.3-1.3-5.9c-.2-2.9.2-5-.3-6-.5-.9-1-.5-2.2-3.2-.9-2.1-2-3-1.6-2.9 0 0-1.4-1.8-1.9 1.4-.4 2.5-.9 5.4-1.6 6.8-1.5 2.8.6 7.1-.6 7.8-1.5 1-1.4-2.1-2.1-3.3 0 0-2.7-5.6-2.7-6.7 0-1.1-.2-1.7-.7-1.7-.6 0-1.2.3-2.3-.6-2.8-2-1.7-.8-1.6-1.1.2-.2-1.4-.2-1.4-1.5s-4.2 1.9-6.1.9c-1.9-.9-1.5-1.4-2-1.4s-1.1 0-1.5.5c-.5.5-1.6.5-2.6 0s-2.9-3.5-4.1-1.6c0 0 .7 2.2 2.6 3.2.9.5 3.7 1.6 5.6-.2 1.1-1.1-.1.7 2 1.2 2.2.6 1.6 4.5-1 7.1-2.5 2.5-2.4 3.7-3.9 4.4-1.4.8-3.1 1.8-3.7 2.4-.7.7-1.7 1.3-2.6-2.6-.9-4-.4-2.9-2.5-3.3-2.1-.5-2.6-2.9-3.5-3.7-1-.7-4.6-4.2-4.6-4.2l-1.6-.3z" id="shape3" transform="translate(27.22 -.02)" fill="transparent"/><path d="M34.1.5s-5 1.8-5.9 2.4c-.9.5-.8 1.4-2.3 1.4-1.5 0-1.5.3-2 1.2-.5.9-1.2 1.3-1.9 1.6-.8.3-1.2.5-1.5 1.2-.4.7-2.1 2.2-2.8 2.2-.8 0-1 .6-1 1 0 .5.2.6-2.3 2.4-2.5 1.8-3.6 2.2-4.5 2.8-2.2 1.6-2 1.9-4.5 3.7-2.8 2.2-3.8 6.2-4.7 7.2-.9.9-1.1-1.6 0-4 .9-2 4.2-6.1 5.4-7.4 1.2-1.2 7.6-6.8 8.3-7.5C15.1 7.9 28 .9 34.1.2c6.1-.6 0 .3 0 .3z" id="shape4" transform="translate(12.42 .76)" fill="transparent"/><path d="M7.1 3.8S6 6 5.3 7.8c-.3.7.2 3.2-.4 4.5-.6 1.3-.8 2.3-.8 2.3s-.6 2.3-.6 3.8c0 1.4-1.6 2-1.6.8s.5-3.2.9-4.3c.5-1.4-1 2.1-1 2.4L.6 22.4c-.4.4-.6-.8-.6-.8S1.4 10.8 9 0c.3-.3-1.9 3.8-1.9 3.8z" id="shape5" transform="translate(-.01 26.41)" fill="transparent"/><path d="M0 .1c.6 0 0 0 1.6.9.4.2 2.2 2.2 2.5 2.6.3.3 2 1 4.9 5.8 0 0 3.1.8 3.7 1.6.5.8 1.5-.4 2.2 0 .8.4 6.5 1.2 6.5 7.2 0 0 .2 1.9 2.3 4.1 2.1 2.1 1.9 3.9 1.9 5.4 0 1.4 4.7 5.3 8 7.2 3.4 2 7.2 3.9 7.4 3.9.2-.1-27.7-6.1-41-38.7 0-.3 0 0 0 0z" id="shape6" transform="translate(1.43 83.6)" fill="transparent"/><path d="M4.6 0s1.5 2.1.7 2.5c-.7.4-.7 2.5-.7 1.2 0 0-.2 3-1.2 4.9-1 1.8.1 3-1.8 3.4-1.9.4-1.6-.9-1.6-2 0-1 1.1-3.3.8-4.1C.5 5 .9 3.6 2.1 3 3.4 2.5 3.7.9 4.6 0z" id="shape7" transform="translate(87.84 88.61)"/></g><g fill="transparent" transform="translate(50.89 15.44)"><path d="M1.9.9s-.5.4 1.5-.7C5.5-.8 3 1.7 3 1.7c.9.4 2.7-.6 3.2-.6s2.6.2 3.5.6c.8.4 3.4.2 2.5 1.2-.9.9-2.5 1.2-3.1 1.2-.6 0-1.9.3-2.4.3s-1.4-.1-1.9.4c-.5.6-3.4 1.4-3.4 1.4s-.8.7-1.2-.7c-.3-1.4-.3-1.7 0-2 .4-.3 0 .2 0-.6s1.2-1.2 1.7-2z" id="shape8" transform="translate(15.64 18.28)"/><path d="M2.4.6c-.4 0-.1-.3-.9.3-.7.5-1.1.6-1.2.9-.2.3.3.7 0 1.1-.4.3-.4 1.3 0 1.3.3 0 1.2.2 1.2.5s.9.7.9.9c0 .3.7.8.7.8v.3c0 .5.9 1.4.9 1.4v1.1c0 .3.8.9 1.6.9h2.3c.4 0 .4 0 .4-.4.1-.5-.4-1.5-.8-2-.4-.4-.9-1.4-.9-1.4l1.3-.8c0 .3-1.3-.9-1.3-.9L6 5.9 4.8 4.4s-1.1-.5-1.5-.5c-.4 0-.2-1.4-.2-1.4L5 1.8 4.8.6S4.5.8 4 .3s-.9-.4-1.6.3z" id="shape9" transform="translate(31.03 14.32)"/><path d="M6.2 0s-2 0-2 .6C4.2 1.3 2.4 4 2 4.3c-.4.4 2.7 2.2.7 3.9-2.1 1.7.3 2.6.3 2.6l-1.7.7s-.4.8-.8.8-.5 1.4-.5 1.4S3.6 12 4.2 12c.6 0 1.5-.3 1.5-2.1 0-1.9.7-2.2.9-2.1.3.1 1.1-1.1 1.1-1.1S9 5 10.4 4.3c1.4-.6.3-1.1-2.7.8-3.1 2-2.8-.5-2.8-1.3 0-.9.3-2.1.8-2.6.5-.6.5-1.2.5-1.2z" id="shape10" transform="translate(-.01)"/></g><style>@keyframes earthroll{0%{transform:translateX(0) rotate(0)}30%{transform:translateX(100px) rotate(-.5turn)}50%{transform:translate(70px) rotate(2turn) scale(.3,.3)}60%{transform:rotate(3turn)}}</style></svg>