<svg viewBox="0 0 116 82.021" width="116" xmlns="http://www.w3.org/2000/svg" height="82"><g transform="translate(1 1.02)"><path transform="translate(11.75)" id="shape1" d="M45.7 12.1s5.1-16 27-11.2C92.3 7.8 98.2 27.1 81.9 48 63.1 69.1 45.7 80 45.7 80S22.2 64.3 9.4 48C-3.3 31.8-5.8 10.2 18.6.9c0 0 19.8-5.6 27.1 11.2z" stroke="#eb6d71" fill="red" style="animation:heart 1s ease infinite"/><path id="shape2" stroke="#fff" stroke-width="2" d="M14.61 37.12h10.6l2.9-5.4 3.1 10.2 2.7-22.4 3.8 38 2.3-25.1 3.1 10.2 2.9-5.4 6.6-.2 1.8-4.6 3.1 9.7 3-26.2 4.2 41.8 2.2-26 3.2 10.2 3.3-5 5.6.1 2.9 11 4.2-15.9 1.5 4.9h12.8" fill="none" style="animation:line-shape 2s linear backwards infinite" stroke-dasharray="100" stroke-dashoffset="100"/><path transform="translate(0 36.99)" id="shape3" d="M114 .3L100.4 0M14.6.2H0" fill="none"/></g><style>@keyframes heart{0%{transform:scaleY(1);transform:scaleX(1)}50%{transform:scaleY(1.05);transform:scaleX(1.05)}}</style></svg>