<svg height="800" width="800" xmlns="http://www.w3.org/2000/svg"><g fill="#4D4D4D"><path d="M770.911 649.338c-3.909-6.785-8.262-12.498-13.017-17.148V368.638c0-8.111-6.581-14.689-14.688-14.689H41.812a14.69 14.69 0 00-12.779 7.439 14.701 14.701 0 00.172 14.787l154.858 259.124c-14.829 10.055-29.206 22.92-42.764 35.084-11.902 10.676-23.148 20.76-30.919 25.119-16.033 8.994-29.993 11.031-38.288 5.607-1.729-1.135-2.975-2.439-3.828-3.672 5.935-.627 11.132-4.865 12.689-10.992 2-7.861-2.754-15.857-10.615-17.854-15.091-3.836-25.255 3.152-29.722 10.967-6.722 11.764-3.254 28.715 8.238 40.311 4.147 4.18 15.624 13.574 34.771 13.574 11.107 0 24.789-3.162 41.125-12.316 10.598-5.951 22.451-16.574 36.157-28.875 11.459-10.266 25.017-22.414 38.296-31.615 9.189-6.361 18.214-11.242 26.345-13.193 3.706-.885 7.239-1.227 10.484-.717 2.656.426 10.616 1.787 19.255 16.213.197.332.385.578.59.922 4.057 7.033 13.034 9.439 20.058 5.391a14.676 14.676 0 005.877-6.313c2.049-4.234 2.042-9.369-.492-13.75-10.525-18.256-24.198-28.846-40.657-31.473-10.246-1.635-20.493.004-30.641 3.75L67.707 383.328h660.811v234.368c-30.706-3.807-61.396 20.654-89.135 45.244-2.86 2.537-5.705 5.074-8.492 7.578-9.524 8.539-18.591 16.641-25.837 21.801-1.812 1.291-3.542 2.451-5.099 3.324-16.033 8.992-29.985 11.027-38.28 5.611-1.729-1.133-2.967-2.432-3.82-3.66 3.788-.402 7.148-2.387 9.583-5.275 1.386-1.639 2.541-3.496 3.106-5.713 2-7.861-2.754-15.857-10.606-17.857-15.1-3.844-25.264 3.143-29.739 10.963-2.155 3.775-3.156 8.111-3.279 12.607-.277 9.51 3.722 19.824 11.525 27.693 4.148 4.182 15.607 13.574 34.764 13.57 11.106 0 24.788-3.156 41.116-12.316 10.615-5.951 22.451-16.574 36.174-28.873.024-.025.058-.051.082-.074 10.574-9.48 22.935-20.514 35.214-29.379 14.418-10.406 28.706-17.82 39.821-16.068.655.105 1.656.27 2.902.67 3.868 1.238 10.229 4.816 16.942 16.469 2.664 4.623 7.468 7.197 12.435 7.299 2.591.053 5.214-.52 7.624-1.91 7.033-4.054 9.443-13.035 5.392-20.062z"/><path d="M170.3 458.756c0 18.898 15.369 34.276 34.263 34.276 18.902 0 34.28-15.378 34.28-34.276s-15.377-34.271-34.28-34.271c-18.894-.001-34.263 15.372-34.263 34.271zm177.662 0c0-18.898-15.377-34.271-34.279-34.271-18.894 0-34.263 15.373-34.263 34.271s15.369 34.276 34.263 34.276c18.901 0 34.279-15.378 34.279-34.276zm75.684 34.276c18.894 0 34.271-15.378 34.271-34.276s-15.378-34.271-34.271-34.271c-18.895 0-34.271 15.373-34.271 34.271s15.376 34.276 34.271 34.276zM215.736 313.39c0 8.111 6.583 14.689 14.689 14.689s14.689-6.578 14.689-14.689v-10.615h173.621c8.115 0 14.688-6.578 14.688-14.688 0-8.111-6.573-14.689-14.688-14.689h-173.62v-6.452c0-.426-.042-1.078-.074-1.5-.017-.094-.755-9.406 5.295-16.009 6.492-7.074 18.525-8.558 27.477-8.558h351.652c8.106 0 14.688-6.578 14.688-14.689s-6.582-14.689-14.688-14.689h-67.126V80.091c0-8.111-6.582-14.689-14.689-14.689h-56.87c-8.107 0-14.689 6.578-14.689 14.689v131.411h-56.444V122.74c0-8.111-6.583-14.689-14.689-14.689h-56.871c-8.107 0-14.689 6.578-14.689 14.689v88.761h-55.583c-21.919 0-38.601 6.254-49.592 18.595-13.164 14.792-12.853 32.657-12.484 37.494v45.8zM505.468 94.78h27.493v115.639h-27.493V94.78zm-142.694 42.649h27.493v72.99h-27.493v-72.99zm267.919 135.968h-40.198c-8.114 0-14.688 6.578-14.688 14.689 0 8.11 6.574 14.688 14.688 14.688h40.198c8.115 0 14.689-6.578 14.689-14.688.001-8.11-6.573-14.689-14.689-14.689z"/><path d="M505.615 273.397c-8.106 0-14.688 6.578-14.688 14.689 0 8.11 6.582 14.688 14.688 14.688h28.961c8.114 0 14.688-6.578 14.688-14.688 0-8.111-6.574-14.689-14.688-14.689h-28.961zM398.661 645.711c2.713.434 10.975 1.754 19.845 17.143.016.033.05.055.065.086 4.065 6.961 13.001 9.332 20.001 5.303 2.278-1.314 4.017-3.184 5.263-5.303 2.59-4.406 2.86-10.012.122-14.758-10.524-18.26-24.205-28.85-40.665-31.48-31.779-5.037-63.576 20.803-92.183 46.238-2.41 2.152-4.82 4.299-7.189 6.424-10.247 9.188-19.993 17.914-27.469 22.955-1.205.814-2.369 1.557-3.451 2.164-16.033 8.984-29.993 11.041-38.28 5.615-1.729-1.133-2.967-2.432-3.828-3.664 3.279-.346 6.246-1.865 8.591-4.115 1.902-1.832 3.411-4.123 4.107-6.873 2-7.861-2.746-15.857-10.615-17.857-11.804-3.006-20.55.646-25.961 6.109-1.5 1.521-2.795 3.158-3.762 4.854-6.721 11.762-3.262 28.715 8.23 40.305 4.148 4.182 15.624 13.57 34.771 13.57 11.099 0 24.789-3.16 41.117-12.32 10.279-5.77 21.771-15.969 34.952-27.787.41-.373.795-.705 1.213-1.082 10.132-9.082 21.902-19.619 33.673-28.297 14.936-11.013 29.879-19.027 41.453-17.23z"/><path d="M562.986 647.887c2.574.414 10.156 1.771 18.509 15.053.442.713.886 1.309 1.328 2.09 4.049 7.033 13.042 9.439 20.066 5.391 3.032-1.75 5.147-4.443 6.312-7.48 1.533-3.992 1.377-8.59-.918-12.582-10.525-18.26-24.214-28.85-40.674-31.48-30.854-4.898-61.756 19.354-89.708 44.063a1377.299 1377.299 0 00-9.656 8.607c-8.886 7.963-17.402 15.596-24.378 20.771-2.377 1.758-4.565 3.234-6.541 4.34-16.033 8.998-29.985 11.033-38.28 5.611-1.729-1.131-2.967-2.432-3.82-3.66 4.23-.445 8.034-2.791 10.46-6.291.976-1.402 1.779-2.943 2.229-4.697 2-7.861-2.754-15.857-10.614-17.857-15.092-3.857-25.256 3.137-29.731 10.959-1.992 3.492-2.984 7.465-3.246 11.596-.606 9.779 3.41 20.559 11.492 28.705 4.148 4.182 15.607 13.578 34.771 13.574 11.099 0 24.789-3.16 41.117-12.318 10.606-5.949 22.442-16.568 36.148-28.863.409-.355.819-.732 1.229-1.098 10.722-9.615 23.147-20.652 35.444-29.379 13.912-9.876 27.633-16.76 38.461-15.055zm4.049-189.131c0-18.898-15.377-34.271-34.271-34.271s-34.271 15.373-34.271 34.271 15.377 34.276 34.271 34.276 34.271-15.378 34.271-34.276z"/></g></svg>