<svg height="50" id="Layer_1" version="1.1" width="50" xml:space="preserve" xmlns="http://www.w3.org/2000/svg"><path fill="none" d="M0 0h50v50H0z"/><path stroke="#3060c3" stroke-width="2" d="M49 44.646a5.46 5.46 0 01-1.846.296c-1.538 0-3.902-.42-5.539-1.71-1.637 1.29-4 1.71-5.538 1.71s-3.901-.42-5.539-1.71c-1.637 1.29-4 1.71-5.538 1.71s-3.901-.42-5.539-1.71c-1.637 1.29-4 1.71-5.538 1.71s-3.901-.42-5.538-1.71c-1.637 1.29-4.001 1.71-5.539 1.71-.69 0-1.291-.062-1.846-.147" fill="#7c9ff8" stroke-linecap="round" stroke-linejoin="round" style="animation:dash 5s linear forwards infinite" stroke-dasharray="15" stroke-dashoffset="14"/><path stroke="#3060c3" stroke-width="2" d="M49 48.646a5.46 5.46 0 01-1.846.296c-1.538 0-3.902-.42-5.539-1.71-1.637 1.29-4 1.71-5.538 1.71s-3.901-.42-5.539-1.71c-1.637 1.29-4 1.71-5.538 1.71s-3.901-.42-5.539-1.71c-1.637 1.29-4 1.71-5.538 1.71s-3.901-.42-5.538-1.71c-1.637 1.29-4.001 1.71-5.539 1.71-.69 0-1.291-.062-1.846-.147" fill="#7c9ff8" stroke-linecap="round" stroke-linejoin="round" style="animation:dash 5s linear backwards infinite" stroke-dasharray="10" stroke-dashoffset="10"/><path d="M32.043 43.981C36.004 42.681 41.146 40.139 45 36c.983-1.057 1.779-2 0-2H7c-1.033 0-2 .969-2 2 0 3.79 7.469 6.832 12.025 8.229" fill="#4b87be" stroke="#4b87be" stroke-linecap="round" stroke-linejoin="round"/><path d="M42 34l-16-4s5-7 2-23c16 14 14 27 14 27z" fill="#e45f25" stroke="#e45f25" stroke-linecap="round" stroke-linejoin="round" stroke-miterlimit="10" stroke-width="2.024"/><path class="sail" d="M25 33.863L7 28s12.4-7.202 18-24v29.863z" fill="#e0bf54" stroke="#e0bf55" stroke-linecap="round" stroke-linejoin="round"/><style/></svg>