<svg viewBox="0 0 1000 1000" xmlns="http://www.w3.org/2000/svg"><path d="M508.678 605.605a72.206 72.206 0 01-3.106 6.96 22.662 22.662 0 016.333 15.777 22.67 22.67 0 01-6.683 16.134 22.675 22.675 0 01-16.135 6.683 22.663 22.663 0 01-16.049-6.598 72.058 72.058 0 01-8.883 3.633c-.891 11.772-10.755 21.079-22.752 21.079-11.997 0-21.861-9.306-22.752-21.079a72.216 72.216 0 01-8.947-3.664c-4.131 3.541-9.331 5.472-14.826 5.472a22.674 22.674 0 01-16.134-6.682 22.669 22.669 0 01-6.684-16.136c0-5.366 1.839-10.449 5.22-14.529a72.12 72.12 0 01-3.976-9.295c-11.504-1.158-20.516-10.898-20.516-22.702 0-.467.02-.929.047-1.389-94.473-5.307-200.747-4.106-200.747-4.106l13.932 55.77c1.807 7.232 8.982 12.373 17.266 12.373 6.463 0 12.413 3.153 15.517 8.223l23.29 55.637c3.104 5.071 9.053 8.224 15.517 8.224h557.206c4.876 0 9.225-2.742 10.862-6.85l16.516-59.022c1.51-3.787 5.343-6.445 9.82-6.808 5.119-.416 9.313-3.811 10.283-8.325l5.613-26.107c.002 0-253.512 14.977-339.232-2.673z" fill="#231f20"/><path d="M375.606 573.052a7.606 7.606 0 000 15.212h9.581c1.473 9.878 5.506 18.926 11.388 26.466l-7.075 7.076a7.606 7.606 0 0010.756 10.756l7.174-7.174a56.548 56.548 0 0026.367 10.773v10.295a7.606 7.606 0 0015.212 0V636.16a56.56 56.56 0 0026.368-10.773l8.332 8.332a7.585 7.585 0 005.378 2.228 7.606 7.606 0 005.378-12.984l-8.234-8.234c5.882-7.54 9.915-16.588 11.389-26.466h11.218a7.606 7.606 0 007.606-7.606 7.606 7.606 0 00-7.606-7.606H497.83a56.551 56.551 0 00-10.878-27.186l7.514-7.514a7.606 7.606 0 10-10.757-10.756l-7.415 7.415c-7.747-6.044-17.09-10.123-27.285-11.493v-10.295a7.606 7.606 0 00-7.606-7.606 7.606 7.606 0 00-7.606 7.606v10.295c-10.195 1.37-19.537 5.449-27.285 11.492l-6.256-6.257a7.606 7.606 0 10-10.757 10.756l6.355 6.356a56.542 56.542 0 00-10.876 27.187h-9.372zm99.764 30.816l-15.604-15.604h22.413a41.398 41.398 0 01-6.809 15.604zm7.105-30.816h-22.708l16.277-16.277a41.383 41.383 0 016.431 16.277zm-33.466-34.138a41.404 41.404 0 0116.423 6.958l-16.423 16.424v-23.382zm0 60.105l15.459 15.459a41.392 41.392 0 01-15.459 6.285v-21.744zm-48.382-10.756h22.414l-15.605 15.604a41.432 41.432 0 01-6.809-15.604zm33.17 32.5a41.381 41.381 0 01-15.458-6.285l15.458-15.458v21.743zm0-81.849v23.38l-16.423-16.423a41.417 41.417 0 0116.423-6.957zm-27.033 17.86l16.278 16.278h-22.71a41.395 41.395 0 016.432-16.278zM500 458.202a7.084 7.084 0 007.084 7.084h293.347a7.084 7.084 0 007.083-7.084v-1.044a7.084 7.084 0 00-7.083-7.084H507.084a7.084 7.084 0 00-7.084 7.084v1.044zm-137.652-169.64h-43.995a7.084 7.084 0 00-7.084 7.084v1.044a7.084 7.084 0 007.084 7.084h3.384v48.17h37.226v-48.17h3.385a7.084 7.084 0 007.083-7.084v-1.044a7.082 7.082 0 00-7.083-7.084zm144.736 55.776a7.084 7.084 0 00-7.084 7.084v1.044a7.084 7.084 0 007.084 7.084h10.365v75.313h276.644V359.55h6.338a7.084 7.084 0 007.083-7.084v-1.044a7.084 7.084 0 00-7.083-7.084H677.009v-44.531c3.779-.151 6.799-3.253 6.799-7.07v-1.044a7.084 7.084 0 00-7.084-7.084H535.121a7.084 7.084 0 00-7.083 7.084v1.044a7.084 7.084 0 007.083 7.084h1.755v44.517h-29.792zm219.306 46.077a7.382 7.382 0 017.382-7.382h31.807a7.382 7.382 0 017.382 7.382v5.976a7.382 7.382 0 01-7.382 7.382h-31.807a7.382 7.382 0 01-7.382-7.382v-5.976zm-62.603 0a7.382 7.382 0 017.382-7.382h31.807a7.382 7.382 0 017.382 7.382v5.976a7.382 7.382 0 01-7.382 7.382h-31.807a7.382 7.382 0 01-7.382-7.382v-5.976zm-43.324-70.098a7.382 7.382 0 017.382-7.382h25.95a7.382 7.382 0 017.382 7.382v5.976a7.382 7.382 0 01-7.382 7.382h-25.95a7.382 7.382 0 01-7.382-7.382v-5.976zm-19.279 70.098a7.382 7.382 0 017.382-7.382h31.806a7.381 7.381 0 017.382 7.382v5.976a7.382 7.382 0 01-7.382 7.382h-31.806a7.382 7.382 0 01-7.382-7.382v-5.976zm-50.292-70.098a7.382 7.382 0 017.382-7.382h25.949a7.382 7.382 0 017.382 7.382v5.976a7.382 7.382 0 01-7.382 7.382h-25.949a7.382 7.382 0 01-7.382-7.382v-5.976zm-12.311 70.098a7.382 7.382 0 017.382-7.382h31.806a7.382 7.382 0 017.382 7.382v5.976a7.383 7.383 0 01-7.382 7.382h-31.806a7.382 7.382 0 01-7.382-7.382v-5.976zm-216.843 7.164h37.226v15.212h-37.226zm0-30.424h37.226v15.212h-37.226zm0 138.873c-4.633 1.295-8.034 5.535-8.034 10.582v45.599c10.747.412 21.565.895 32.258 1.449 4.653.241 9.198.501 13.637.76a22.938 22.938 0 017.399-4.886v-42.924c0-5.048-3.401-9.288-8.035-10.582V428h-37.226v78.028zm-27.47-209.338v-1.044a7.084 7.084 0 00-7.084-7.084H243.19a7.084 7.084 0 00-7.084 7.084v1.044a7.084 7.084 0 007.084 7.084h3.384v48.17h37.225v-48.17h3.385a7.084 7.084 0 007.084-7.084zM219.65 513.479c0-3.91-3.776-6.711-7.525-5.566l-41.644 12.697a5.838 5.838 0 00-4.116 5.575v33.671c3.75-.018 8.152-.027 13.109-.027 10.648 0 24.393.045 40.177.206v-46.556zm26.924-115.9h37.225v15.212h-37.225zm0-30.424h37.225v15.212h-37.225zm0 138.873c-4.633 1.295-8.034 5.535-8.034 10.582v43.658c16.571.25 34.646.626 53.295 1.19v-44.847c0-5.048-3.401-9.288-8.035-10.582v-78.026h-37.225v78.025zm405.17 92.967c51.397 0 104.513-1.736 142.346-3.32V480.496H517.451v79.038c8.331 3.4 14.209 11.588 14.209 21.126a22.69 22.69 0 01-3.91 12.742c23.265 3.088 61.429 5.593 123.994 5.593zm74.646-85.999a7.382 7.382 0 017.382-7.382h31.807a7.382 7.382 0 017.382 7.382v5.976a7.382 7.382 0 01-7.382 7.382h-31.807a7.382 7.382 0 01-7.382-7.382v-5.976zm0 38.066a7.382 7.382 0 017.382-7.382h31.807a7.382 7.382 0 017.382 7.382v5.976a7.382 7.382 0 01-7.382 7.382h-31.807a7.382 7.382 0 01-7.382-7.382v-5.976zm-62.603-38.066a7.382 7.382 0 017.382-7.382h31.807a7.382 7.382 0 017.382 7.382v5.976a7.382 7.382 0 01-7.382 7.382h-31.807a7.382 7.382 0 01-7.382-7.382v-5.976zm0 38.066a7.382 7.382 0 017.382-7.382h31.807a7.382 7.382 0 017.382 7.382v5.976a7.382 7.382 0 01-7.382 7.382h-31.807a7.382 7.382 0 01-7.382-7.382v-5.976zm-62.603-38.066a7.382 7.382 0 017.382-7.382h31.806a7.381 7.381 0 017.382 7.382v5.976a7.382 7.382 0 01-7.382 7.382h-31.806a7.382 7.382 0 01-7.382-7.382v-5.976zm0 38.066a7.382 7.382 0 017.382-7.382h31.806a7.381 7.381 0 017.382 7.382v5.976a7.382 7.382 0 01-7.382 7.382h-31.806a7.382 7.382 0 01-7.382-7.382v-5.976zm-62.603-38.066a7.382 7.382 0 017.382-7.382h31.806a7.382 7.382 0 017.382 7.382v5.976a7.383 7.383 0 01-7.382 7.382h-31.806a7.382 7.382 0 01-7.382-7.382v-5.976zm0 38.066a7.382 7.382 0 017.382-7.382h31.806a7.382 7.382 0 017.382 7.382v5.976a7.383 7.383 0 01-7.382 7.382h-31.806a7.382 7.382 0 01-7.382-7.382v-5.976z" fill="#231f20"/></svg>