<svg height="48" width="48" xmlns="http://www.w3.org/2000/svg"><path d="M35.014 29.403l2.409 2.896-9.409 6.957-.004.004c-1.165.863-1.144-.5-1.144-.5V14.359h.071v-.566h4.772v-.006h.536c1.143 0 2.07-.931 2.07-2.076V9.983a2.074 2.074 0 00-2.07-2.076h-5.307V6.662a3.968 3.968 0 001.013-2.637 4.007 4.007 0 10-8.016 0c0 1.012.389 1.93 1.011 2.637v1.245h-5.304a2.075 2.075 0 00-2.075 2.076v1.728c0 1.146.93 2.076 2.075 2.076h1.828v.006h3.382v25.028c-.005.247-.086 1.139-1.051.438l-9.357-6.798 2.544-3.057-9.166-.021 1.685 9.006 2.594-3.116 15.758 12.709 15.981-12.78 2.654 3.188 1.684-9.006-9.164.019zM23.943 2.396a2.004 2.004 0 11-.004 4.008 2.004 2.004 0 01.004-4.008z" fill="#fff"/></svg>