<svg height="25" viewBox="0 0 512 512" width="25" xmlns="http://www.w3.org/2000/svg"><path d="M396.776 86.288H115.225c-29.992 0-54.403 22.562-54.403 50.308v154.83c0 27.735 24.411 50.297 54.403 50.297h166.034l119.812 83.989v-84.135c27.996-2.038 50.108-23.753 50.108-50.151v-154.83c0-27.746-24.411-50.308-54.403-50.308zm31.13 205.138c0 14.902-13.972 27.025-31.131 27.025h-18.978v62.523l-89.193-62.523h-173.38c-17.164 0-31.131-12.123-31.131-27.025v-154.83c0-14.913 13.967-27.035 31.131-27.035h281.551c17.159 0 31.131 12.123 31.131 27.035v154.83z"/></svg>