<svg width="1440" height="1028" xmlns="http://www.w3.org/2000/svg"><g fill="#2962ff" fill-rule="evenodd" opacity=".4"><path d="M367.146 346.062c32.55-8.323 66.004-15.685 99.693-16.92 26.744-.979 50.915 4.94 75.609 14.844 42.967 17.23 81.305 43.735 117.627 72.053 64.69 50.437 127.569 113.054 210.496 130.906 86.519 18.63 176.044.668 262.218-10.973 41.436-5.598 83.411-10.555 125.292-8.388 50.32 2.602 101.052 11.928 151.077 18.005 11.54 1.405 23.165 2.802 34.842 4.24v-13.411c-12.52-1.563-24.98-3.074-37.353-4.585-50.104-6.122-100.89-15.353-151.306-17.904-40.69-2.063-81.483 1.864-121.886 6.358-84.969 9.445-172.102 23.586-257.148 7.236-83.847-16.118-148.16-77.387-214.1-127.083-36.65-27.626-75.224-53.607-118.316-70.1-25.042-9.586-49.27-14.53-76.168-13.096-33.887 1.804-67.451 9.327-100.201 17.826-92.16 23.918-181.415 58.311-271.021 90.153C64.47 436.605 32.38 447.94 0 458.335v11.131c31.894-10.35 63.507-21.601 95.066-32.879 89.887-32.121 179.478-66.838 272.08-90.525"/><path d="M350.88 279.588c56.936-15.152 115.14-28.086 173.085-11.703 46.054 13.024 88.291 36.752 129.157 61.087 40.319 24.006 79.88 49.653 122.413 69.68 40.691 19.164 80.786 28.416 125.412 32.014 80.606 6.5 161.375 10.483 242.147 14.292 85.017 4.01 169.784 9.772 254.602 16.929 15.312 1.292 30.77 2.63 46.304 4.113v-13.935c-15.405-1.297-30.732-2.438-45.916-3.522-83.491-5.951-167.127-9.656-250.558-16.435-80.347-6.528-160.59-14.252-241.031-19.606-22.868-1.522-45.509-2.248-67.969-7.262-21.177-4.728-41.727-11.965-61.656-20.479-44.268-18.907-85.514-44.024-127.329-67.656-42.183-23.839-85.6-47.358-132.692-59.967-57.585-15.422-114.795-3.226-171.291 11.745-84.646 22.436-166.938 53.105-249.783 81.225C64.442 360.745 32.45 372.135 0 382.116v13.34c32.7-10.218 64.927-21.841 96.464-32.637 84.357-28.872 168.173-60.282 254.415-83.23"/><path d="M247.337 159.57c51.908-13.96 102.651-24.096 156.434-15.743 61.294 9.52 120.055 31.766 178.794 50.905 59.471 19.372 120.494 37.897 183.324 41.385 56.545 3.14 110.818-14.634 167.475-6.431 46.107 6.677 88.79 25.171 130.252 45.642 37.258 18.391 74.888 39.53 116.316 46.71 33.505 5.806 65.496-2.543 98.361-8.581 39.33-7.224 78.764-14.081 118.479-18.857 15.526-1.868 31.317-3.51 47.228-4.684V276.02c-17.262 1.45-34.386 3.495-51.178 5.801-39.559 5.43-78.79 12.972-117.922 20.86-31.199 6.29-61.89 15.097-93.918 10.277-42.208-6.35-80.237-28.662-117.523-48.088-41.682-21.712-84.58-41.692-131.421-48.979-27.754-4.319-56.04-4.18-83.802.03-29.009 4.4-56.606 9.135-86.148 8.048-63.771-2.34-125.934-20.466-186.38-39.613-59.629-18.89-119.24-41.175-181.334-50.553-53.795-8.127-103.861 2.617-155.628 16.797C160.16 172.126 80.886 202.7 0 220.301v11.163c22.716-5.383 45.223-11.658 67.472-18.078 60.126-17.351 119.422-37.563 179.865-53.815"/><path d="M385.67 123.313c62.763 9.326 123.061 31.693 183.435 50.37 61.256 18.95 124.406 36.719 188.966 37.926 29.96.558 57.76-5.18 87.115-9.804 28.25-4.447 57.08-4.566 85.31.119 47.631 7.902 90.785 29.353 132.757 52.237 37.367 20.372 75.94 43.741 119.013 48.968 32.49 3.942 64.332-6.389 95.784-13.183 39.152-8.459 78.437-16.491 118.09-22.265 15.718-2.289 31.726-4.319 47.86-5.802v-12.862c-16.766 1.642-33.396 3.905-49.71 6.452-39.524 6.168-78.644 14.64-117.637 23.512-31.531 7.177-63.71 18.179-96.406 14.453-43.728-4.982-82.625-29.508-120.125-50.684-42.306-23.89-85.93-46.274-134.42-54.147-28.857-4.684-58.322-4.171-87.096.88-29.526 5.186-57.445 11.18-87.674 10.82-64.96-.771-128.605-18.46-190.279-37.34-60.556-18.538-121.069-40.91-184.017-49.954-28.115-4.039-56.104-4.462-83.956 1.52-23.365 5.02-46.46 11.432-69.42 18.028C149.78 153.667 75.668 180.283 0 195.803v11.717c78.218-16.513 154.854-45.064 230.829-66.311 51.678-14.455 100.955-25.9 154.84-17.896M403.892 8.67c57.143 5.724 113.389 18.218 169.929 27.912 56.319 9.658 113.672 17.476 170.927 13.984 27.596-1.683 54.446-8.547 82.024-9.993 28.081-1.477 56.187 1.64 83.455 8.432 93.837 23.377 178.81 99 279.567 87.887 69.265-7.64 137.653-21.196 206.666-30.626 15.706-2.144 31.584-4.136 47.54-5.708v-15.01c-17.018 1.81-33.951 4.074-50.693 6.485-67.244 9.683-133.923 22.573-201.484 30.013-101.815 11.216-185.235-61.633-279.464-86.751-26.78-7.142-54.421-10.847-82.154-10.033-27.27.802-53.835 7.339-81.016 9.271-56.234 3.997-112.692-2.496-168.254-10.826C527.205 15.653 473.713 5.157 419.59 0h-86.017c-23.872 2.219-47.66 6.017-71.97 10.655C174.821 27.208 88.03 48.628 0 57.837V69.72c85.058-10.133 168.847-31.895 252.547-49.196C303.592 9.972 351.69 3.444 403.892 8.67"/><path d="M280.11 83.89c26.986-6.26 54.945-5.088 82.179-1.115 62.392 9.102 122.468 30.937 182.695 48.815 61.395 18.223 124.794 35.153 189.29 35.198 30.35.021 58.195-6.408 87.737-12.124 29.785-5.763 60.385-6.688 90.38-1.975 50.414 7.923 95.564 31.449 139.648 55.984 39.268 21.856 80.544 46.689 126.578 49.141 33.428 1.784 67.734-9.69 100.14-16.673 37.07-7.987 74.22-15.744 111.71-21.52 17.573-2.712 35.49-5.095 53.533-6.744v-12.496c-18.51 1.579-36.898 3.913-54.942 6.56-37.497 5.5-74.688 12.864-111.837 20.312-32.642 6.546-67.206 17.264-100.724 15.697-46.52-2.175-88.58-26.161-128.699-47.58-44.643-23.832-90.249-46.782-140.826-54.464-29.98-4.552-60.534-3.654-90.297 2.034-29.266 5.592-56.956 11.515-86.983 11.384-63.705-.277-126.37-16.485-187.196-34.002-59.748-17.208-119.348-38.097-181.099-46.952-27.076-3.882-55.135-5.306-82.029.649-22.926 5.076-45.574 12.32-68.092 18.944C141.633 113.456 71.541 136.57 0 150.56v11.287c71.671-14.156 141.856-37.63 211.537-58.504 22.692-6.8 45.486-14.095 68.573-19.452"/><path d="M289.434 45.814c26.904-4.727 54.985-2.883 81.9.692 59.856 7.957 118.08 25.681 176.552 40.208 59 14.66 119.467 27.812 180.566 27.106 29.149-.337 56.325-6.612 84.935-10.917 29.286-4.407 59.116-4.096 88.294.993 50.402 8.79 96.234 31.496 141.809 53.773 42.063 20.562 86.395 41.85 134.26 41.321 32.279-.356 65.572-8.544 97.337-13.938 37.793-6.42 75.551-13.129 113.553-18.222 18.22-2.441 36.735-4.624 55.36-6.126v-14.181c-17.27 1.43-34.447 3.42-51.384 5.631-38.348 5.013-76.458 11.642-114.613 17.92-32.237 5.305-65.702 12.848-98.385 13.968-48.21 1.653-93.173-18.706-135.731-39.076-45.691-21.873-91.353-44.733-141.529-54.208-28.774-5.43-58.24-6.329-87.274-2.534-28.365 3.708-55.443 10.264-84.245 10.886-60.177 1.3-119.895-10.648-178.25-24.178-58.024-13.45-115.765-29.987-174.967-37.502-26.92-3.42-54.859-5.196-81.798-.912-22.97 3.654-45.764 10.171-68.297 15.864C152.306 71.382 76.826 93.73 0 106.136v11.352c74.833-12.955 148.299-35.486 221.446-54.9 22.434-5.957 45.112-12.757 67.988-16.774"/><path d="M281.65 63.674c26.97-5.5 55.268-3.692 82.315.198 61.289 8.81 120.573 28.827 180.095 45.27 60.33 16.665 122.397 31.911 185.358 31.731 29.842-.084 57.394-6.37 86.557-11.447 29.648-5.164 59.98-5.53 89.696-.7 50.594 8.228 96.325 31.233 141.442 54.51 40.94 21.12 84.036 44.009 131.193 44.744 33.895.528 69.042-9.644 102.217-15.887 37.48-7.055 74.99-14.084 112.786-19.248 16.682-2.279 33.634-4.281 50.691-5.674v-13.474c-17.654 1.412-35.205 3.46-52.475 5.773-37.837 5.07-75.41 11.886-112.985 18.586-33.319 5.94-68.59 15.482-102.553 14.99-47.434-.688-91.001-22.965-132.485-43.767-45.366-22.748-91.281-45.342-141.845-53.49-29.554-4.763-59.712-4.493-89.215.514-28.82 4.887-56.12 10.806-85.572 10.87-62.001.142-123.194-14.196-182.819-29.938-58.876-15.547-117.545-34.412-178.027-42.714-26.906-3.69-55.063-5.485-81.909-.285-22.816 4.421-45.405 11.439-67.787 17.644C144.928 91.676 73.156 114.375 0 127.787v11.255c72.31-13.805 143.201-36.816 213.678-57.027 22.443-6.436 45.082-13.674 67.972-18.34"/><path d="M265.873 179.433c52.174-13.733 103.985-23.137 157.823-14.258 59.052 9.74 115.477 31.99 171.69 51.783 56.874 20.027 114.9 39.644 175.16 46.032 54.494 5.777 107.704-8.941 162.148-2.748 44.765 5.092 87.164 20.22 128.371 37.844 37.329 15.967 74.36 34.532 114.275 43.181 31.916 6.915 61.445 2.939 93.367-1.613 41.478-5.921 82.995-11.706 124.727-15.508 16.627-1.514 33.537-2.822 50.566-3.654V306.01c-16.36 1.015-32.6 2.494-48.565 4.186-41.707 4.423-83.147 10.984-124.521 17.786-32.325 5.316-62.504 10.982-95.082 4.192-40.505-8.44-77.656-28.38-114.943-45.556-41.307-19.028-83.9-35.616-129.32-41.223-55.48-6.847-109.356 9.451-164.86 4.75-61.497-5.208-120.942-24.34-179.087-44.04-57.36-19.43-114.89-41.57-174.973-50.998-53.628-8.418-104.92 1.465-156.763 15.276-62.512 16.654-123.744 37.775-185.775 56.09-23.097 6.819-46.486 13.57-70.111 19.37V258.8c24.801-6.285 49.34-13.586 73.54-20.876 64.148-19.326 127.523-41.43 192.333-58.492"/><path d="M287.287 103.873c27.54-6.362 55.504-5.702 83.35-1.626 63.227 9.257 123.989 31.963 184.874 50.51 62.02 18.895 126.232 36.464 191.561 36.226 30.56-.11 58.566-7.128 88.357-12.523 29.293-5.304 59.33-5.822 88.693-.773 49.344 8.483 93.273 32.292 136.017 57.23 37.718 22.001 77.393 47.382 122.079 50.753 33.148 2.497 66.605-9.738 98.507-17.231 36.966-8.68 74.056-16.944 111.53-23.116 16.969-2.797 34.288-5.275 51.745-7.05v-11.58c-17.647 1.768-35.154 4.26-52.315 7.085-37.499 6.169-74.62 14.429-111.616 23.065-32.116 7.495-66.085 19.857-99.417 17.757-45.402-2.86-85.698-28.699-123.885-51.065-43.3-25.357-87.828-49.585-137.95-57.845-29.922-4.933-60.486-4.044-90.222 1.753-29.786 5.81-57.736 12.842-88.368 12.999-65.195.334-129.297-17.205-191.185-36.04-60.62-18.445-121.12-41.129-184.067-50.328-27.415-4.006-55.118-4.768-82.186 1.809-23.297 5.66-46.302 12.913-69.243 19.852-70.308 21.274-141.16 45.13-213.546 59.31v10.931c73.884-14.722 146.213-39.79 217.963-61.04 22.945-6.796 45.997-13.675 69.324-19.063m78.746 218.842c58.596-15.375 118.32-28.322 176.857-7.21 43.376 15.645 82.365 41.014 119.524 67.858 67.636 48.86 133.685 108.41 218.764 122.72 83.674 14.072 168.683 3.865 252.507-3.135 39.421-3.29 79.09-6.12 118.66-4.131 50.415 2.536 101.136 11.33 151.258 17.315 13.373 1.597 26.853 3.2 40.397 4.868v-13.534c-15.05-1.792-30.026-3.49-44.866-5.178-48.545-5.522-97.493-13.263-146.269-16.044-38.656-2.204-77.44-.551-116.067 1.524-83.053 4.46-166.617 11.223-249.4-.471-87.137-12.31-155.003-69.285-225.057-117.81-37.876-26.24-77.443-51.234-121.288-66.287-58.52-20.092-118.254-6.864-176.536 8.508-90.502 23.869-178.295 57.295-266.53 88.2-32.513 11.386-65.1 22.689-97.987 32.998v12.037c32.604-10.334 64.913-21.633 97.155-32.997 88.968-31.357 177.527-65.256 268.878-89.231"/><path d="M338.88 259.397c55.974-14.78 112.222-26.26 169.366-11.843 48.27 12.179 93.001 35.485 136.645 58.82 43.446 23.236 86.519 47.795 132.626 65.497 20.78 7.976 42.18 14.535 64.132 18.383 23.09 4.048 46.445 3.726 69.777 5.059 80.456 4.589 160.095 16.453 240.08 25.69 81.96 9.466 164.347 10.487 246.653 15.12 15.156.852 30.46 1.776 45.841 2.877v-14.225c-15.338-.89-30.602-1.587-45.709-2.199-81.198-3.291-162.439-1.275-243.034-13.052-79.77-11.658-158.733-27.79-239.432-32.027-23.79-1.25-47.74-.073-71.4-3.135-22.707-2.936-44.95-8.783-66.58-16.204-47.94-16.447-92.856-40.426-137.952-63.255-45.139-22.848-91.243-45.963-140.745-57.745-56.663-13.484-112.07-2.688-167.498 11.885-80.854 21.256-159.51 50.25-238.762 76.644C62.464 335.821 31.444 346.554 0 355.907v13.66c32-9.684 63.557-20.765 94.493-31.172 81.088-27.277 161.599-57.134 244.387-78.998"/><path d="M284.805 197.993c52.621-13.745 105.297-23.064 159.483-13.501 56.295 9.935 109.82 32.122 162.887 52.606 53.674 20.713 108.077 41.553 165.054 51.14 25.832 4.347 52.16 6.239 78.316 4.2 26.168-2.038 51.578-4.11 77.86-2.02 84.847 6.75 158.497 47.895 240.013 67.218 31.45 7.454 61.158 7.51 93.165 4.492 43.554-4.108 87.102-8.38 130.795-10.772 16.992-.93 34.249-1.686 51.622-2.025v-14.712c-17.22.593-34.324 1.627-51.152 2.853-41.695 3.038-83.217 7.92-124.725 12.84-33.094 3.924-63.508 6.283-96.298-1.307-39.238-9.084-76.12-26.147-113.519-40.655-41.165-15.97-83.457-29.241-127.61-33.449-53.432-5.09-105.726 7.738-159.216.428-58.648-8.01-114.878-28.231-170.168-48.576-54.65-20.107-109.634-42.277-167.31-52.082-53.954-9.173-106.215.122-158.561 13.809-67.105 17.544-132.649 40.582-198.937 60.88C51.35 257.063 25.818 264.858 0 271.58v13.398c26.796-7.163 53.28-15.454 79.348-23.573 68.41-21.3 136.096-45.296 205.457-63.413"/><path d="M361.3 301.887c57.898-15.345 117.319-28.663 175.744-9.732 44.464 14.41 84.799 39.011 123.562 64.638 73.055 48.3 142.679 102.013 232.197 112.658 81.876 9.736 164.345 6.447 246.556 4.712 37.885-.8 75.847-1.265 113.692 1.04 49.408 3.01 98.948 9.875 148.179 15.127 14.156 1.508 28.427 3.041 42.77 4.67v-13.729c-16.057-1.69-32.035-3.243-47.86-4.766-84.99-8.162-169.269-15.465-254.672-16.483-81.479-.97-163.041-1.223-244.212-9.227-43.512-4.29-82.661-15.674-121.66-35.64-41.02-21.002-79.063-47.228-118.007-71.724-39.748-25.002-80.955-49.198-126.149-62.946-58.24-17.715-117.124-4.528-174.593 10.746-87.927 23.367-173.33 55.578-259.241 85.262C65.726 387.51 33.11 399.453 0 409.968v12.856c33.3-10.734 66.094-22.896 98.1-34.04 87.179-30.348 173.88-63.224 263.2-86.897"/><path d="M323.29 237.424c54.838-14.373 109.49-24.595 165.627-12.022 50.84 11.386 98.439 34.32 145.173 56.702 46.836 22.435 93.704 45.816 143.55 60.932 22.513 6.828 45.635 11.917 69.11 13.878 24.227 2.024 48.635.18 72.931 1.444 81.17 4.222 159.294 25.063 238.994 38.993 79.203 13.842 159.478 8.341 239.505 10.188 15.136.35 30.438.796 45.82 1.461v-14.522c-15.373-.432-30.663-.624-45.787-.704-78.74-.423-158.394 8.665-236.186-6.69-79.844-15.764-157.021-41.416-238.862-45.976-24.818-1.381-49.51.85-74.274-.13-24.203-.955-48.17-5.254-71.55-11.465-51.7-13.735-100.49-36.496-149.054-58.516-48.339-21.918-97.423-44.692-149.621-55.738-55.626-11.771-109.675-2.05-163.947 12.125-76.54 19.988-151.058 47.122-226.218 71.606C59.484 308.444 29.935 318.338 0 326.922v13.787c30.72-8.982 61.035-19.31 90.785-29.12 77.21-25.457 153.802-53.537 232.506-74.165"/><path d="M305.284 216.858c53.721-14 107.234-23.356 162.36-12.34 53.635 10.717 104.284 33.348 154.293 54.807 50.35 21.605 101.124 43.711 154.719 55.997 24.25 5.56 49.082 9.01 73.998 8.898 25.301-.118 50.176-2.455 75.534-.857 82.71 5.21 158.782 36.094 239 53.357 76.285 16.419 155.635 3.532 232.91 2.478 15.15-.206 30.484-.286 45.902-.1v-14.757c-17.401.065-34.691.511-51.732 1.12-43.67 1.559-87.244 4.835-130.833 7.826-32.934 2.263-63.926.932-96.182-6.59-80.617-18.796-155.521-54.41-239.216-60.005-25.865-1.73-50.983.807-76.763 1.72-25.52.903-51.058-1.894-76.058-6.944-55.182-11.146-107.654-32.668-159.604-53.817-51.42-20.932-103.406-43.225-158.261-53.413-54.559-10.13-107.68-.655-160.716 13.215-71.735 18.758-141.687 43.826-212.327 66.212C55.287 282.23 27.81 291.052 0 298.688v13.715c29.016-8.145 57.666-17.557 85.822-26.614 72.958-23.463 145.25-49.596 219.462-68.931m-.424-191.946c27.131-3.691 54.993-1.96 82.065 1.352 58.721 7.18 116.163 22.523 173.946 34.789 57.8 12.273 116.915 22.76 176.228 20.374 28.462-1.144 55.67-8.27 83.881-10.993 28.74-2.776 57.726-.857 85.932 5.255 49.845 10.8 95.181 34.249 141.062 55.706 43.26 20.23 89.219 39.071 137.927 35.062 70.29-5.787 139.831-22.306 209.75-31.39 15.96-2.073 32.11-3.954 48.349-5.362v-14.741c-17.278 1.592-34.466 3.7-51.436 5.99-68.318 9.22-136.068 23.458-204.678 30.464-48.912 4.996-95.354-12.949-139.005-33.036-45.876-21.115-90.949-44.738-140.45-56.253-27.755-6.455-56.32-8.967-84.747-6.831-27.904 2.095-54.98 9.171-83.015 10.588C682.357 68.841 624.085 59.65 567 48.634 509.8 37.596 452.923 23.608 394.961 17.1c-27.042-3.038-54.691-4.545-81.784-1.207-23.323 2.874-46.504 8.698-69.422 13.808C163.033 47.702 82.17 69.79 0 80.825v11.59c79.587-11.794 157.842-34.126 235.895-52.7 22.747-5.413 45.78-11.65 68.966-14.803M1306.197 627.64c-22.84-1.671-45.914-4.344-68.796-2.568-44.754 3.47-88.915 13.32-132.815 22.237-99.345 20.181-207.642 44.055-307.67 14.924-81.241-23.66-137.207-93.944-196.219-150.003-33.345-31.678-69.208-61.142-110.523-81.857-24.251-12.16-47.637-20.442-75.022-20.373-31.784.08-63.495 6.52-94.215 14.155-86.877 21.593-170.523 55.331-254.225 86.604-22.184 8.286-44.39 16.574-66.712 24.516v8.099c19.913-7.187 39.74-14.618 59.546-22.053 82.594-31.005 165.187-64.457 251.032-85.533 30.366-7.458 61.743-13.667 93.144-13.46 27.34.181 50.625 8.997 74.632 21.498 40.862 21.276 76.102 51.235 108.763 83.408C645.18 584.43 699.896 655.81 781.298 679.872c102.272 30.237 213.414 5.694 314.93-15.565 44.335-9.284 88.895-19.688 134.104-23.687 21.086-1.865 42.619.433 63.712 1.685 26.894 1.6 53.765 3.615 80.593 6.075 22.972 2.107 46.139 4.407 69.363 7.092V640.8c-19.255-2.274-38.448-4.308-57.494-6.225-26.735-2.694-53.511-4.976-80.31-6.934"/><path d="M1198.118 690.485c-44.47 4.92-88.49 17.344-132.032 27.208-108.357 24.55-228.218 50.944-337.552 17.307-82.642-25.424-133.061-99.59-188.443-160.856-30.376-33.602-63.539-65.017-102.88-87.91-23.135-13.46-46.115-23.987-73.17-25.066-30.102-1.2-60.359 4.205-89.557 11.016-82.34 19.21-161.359 51.612-240.216 81.545-11.322 4.297-22.749 8.759-34.268 13.243v7.615a3378.642 3378.642 0 0125.381-9.802c77.543-29.503 155.332-61.469 236.433-79.958 28.793-6.564 58.67-11.67 88.31-10.094 26.88 1.43 49.864 12.54 72.655 26.245 38.834 23.359 71.293 55.191 100.913 89.193 54.684 62.775 103.641 137.47 187.05 163.356 111.692 34.668 234.414 7.744 345.049-17.884 43.644-10.108 88.085-23.63 132.74-28.391 47.586-5.072 97.587-1.618 145.232.915 36.58 1.95 73.438 4.683 110.237 8.654v-15.34c-32.089-3.53-64.196-6.156-96.053-8.243-48.907-3.206-100.964-8.159-149.829-2.753"/><path d="M1178.752 726.767c-44.98 4.652-89.795 19.033-133.685 29.436-112.991 26.786-238.678 54.244-352.803 18.433-84.325-26.465-131.813-101.624-185.86-166.162-28.844-34.44-60.601-66.708-98.918-90.547-22.441-13.956-45.445-25.679-72.131-27.48-29.149-1.966-58.62 2.81-86.989 9.12-79.77 17.736-156.231 49.258-232.371 78.323A2488.405 2488.405 0 000 584.06v7.824c2.31-.89 4.615-1.774 6.918-2.655 74.761-28.542 149.91-59.567 228.364-76.483 27.942-6.025 57.045-10.491 85.692-8.086 26.495 2.221 49.509 14.457 71.643 28.623 37.839 24.215 68.94 56.834 97.061 91.602 53.584 66.246 99.718 141.465 185.162 168.47 116.485 36.816 245.092 8.885 360.357-19.003 42.448-10.266 85.418-24.068 128.794-29.758 48.672-6.387 99.476-4.951 148.4-3.4 43.743 1.388 87.75 4.102 131.609 8.594V734.53c-39.205-4.137-78.513-6.856-117.566-8.6-48.738-2.168-99.047-4.2-147.682.836"/><path d="M1286.88 658.537c-21.467-1.012-43.58-3.075-65.017-1.17-45.589 4.047-90.672 15.505-135.305 25.11-103.777 22.325-217.876 47.469-322.48 16.117-81.655-24.473-134.972-96.775-192.073-155.125-31.91-32.609-66.473-63.011-106.84-84.81-23.737-12.82-46.902-22.17-74.174-22.627-30.985-.522-61.996 5.43-91.981 12.67-84.717 20.453-166.149 53.529-247.534 84.147-16.93 6.37-34.103 13.11-51.476 19.772v7.65c14.562-5.628 28.981-11.266 43.23-16.648 80.163-30.268 160.444-62.983 244.019-82.816 29.604-7.026 60.251-12.71 90.81-11.862 27.177.754 50.243 10.668 73.69 23.796 39.87 22.324 73.745 53.193 104.91 86.257 56.226 59.652 108.146 132.844 190.225 157.728 106.923 32.415 223.866 6.678 329.882-16.722 43.377-9.571 86.915-20.643 131.108-25.834 21.436-2.515 43.64-.87 65.178-.186a1968.01 1968.01 0 0182.051 4.346c29.462 2.168 59.174 4.746 88.897 8.066v-15.132c-25.238-2.872-50.438-5.245-75.437-7.355a2203.218 2203.218 0 00-81.682-5.372M1111.77 938.004c-44.462 12.338-88.306 26.445-133.152 37.501-139.725 34.444-297.854 58.634-437.18 9.907-50.15-17.538-93.384-44.975-128.443-84.807-26.051-29.595-47.247-62.96-70.818-94.47-25.917-34.646-55.231-66.61-91.757-90.289-44.109-28.595-90.199-42.191-142.72-36.617-36.635 3.885-72.448 13.335-107.7 24.56v13.73c31.86-9.521 64.179-17.338 97.145-20.617 51.873-5.155 97.517 8.249 141.114 36.43 36.698 23.719 66.234 55.772 92.543 90.325 24.013 31.536 45.758 64.9 72.34 94.409 35.602 39.517 78.863 65.7 129.348 82.61 140.834 47.171 299.767 25.468 441.44-6.608 45.526-10.309 90.131-23.186 134.978-35.95 46.168-13.138 93.874-20.577 141.525-25.81 64.355-7.064 128.94-9.534 193.567-11.404v-15.19c-63.517.662-127.003 1.982-190.332 8-47.756 4.54-95.6 11.446-141.898 24.29"/><path d="M1254.129 878.495c-48.081 3.123-96.304 8.758-143.125 20.456-43.69 10.917-86.25 26.43-129.712 38.302-135.06 36.889-289.484 64.625-425.066 15.39-49.4-17.938-91.929-46.482-125.943-86.492-25.362-29.837-45.816-63.363-68.74-95.02-25.274-34.903-54.106-67.02-90.249-90.907-21.734-14.362-46.314-27.612-71.763-33.744-24.065-5.793-49.305-5.308-73.719-2.265C82.86 649.571 41.068 662.154 0 676.454v12.307c38.267-12.871 77.191-23.945 117.119-28.473 53.192-6.032 99.886 7.706 144.646 36.613 36.39 23.5 65.584 55.246 91.202 89.9 23.194 31.38 43.913 64.659 69.491 94.224 34.543 39.927 77.848 68.77 127.39 87.037 137.215 50.59 294.123 23.97 431.307-12.865 43.959-11.803 86.882-27.211 130.824-38.938 46.546-12.426 94.622-18.666 142.573-22.35 63.106-4.85 126.268-4.784 189.448-4.021v-13.152c-63.298-1.67-126.594-2.35-189.871 1.759"/><path d="M1274.028 818.1c-50.064.98-100.351 4.284-149.701 13.118-42.896 7.681-84.698 22.123-126.798 33.25-126.953 33.552-269.985 63.197-398.653 21.735-48.438-15.611-86.785-41.465-119.328-80.255-25.745-30.69-46.62-65.032-69.803-97.617-25.353-35.638-53.922-69.098-89.945-94.328-21.004-14.708-44.782-29.003-70.289-33.491-26.04-4.578-53.032-2.306-78.93 2.073C112.056 592.48 55.605 613.035 0 634.094v9.705c51.507-19.252 103.843-37.549 157.986-46.239 25.519-4.099 52.075-5.994 77.64-1.18 25.448 4.79 49.323 18.9 70.396 33.55 35.936 24.978 64.391 58.192 89.52 93.73 22.94 32.435 43.49 66.665 68.907 97.288 32.539 39.205 71.387 65.686 119.902 81.98 130.184 43.727 276.041 14.65 404.888-19.648 42.492-11.311 84.52-26.025 127.658-34.632 49.27-9.827 99.636-13.803 149.788-15.36 59.13-1.845 118.268-.186 177.315 3.39v-13.795c-56.584-3.973-113.298-5.889-169.972-4.783"/><path d="M1259.679 848.497c-48.132 2.094-96.414 6.526-143.62 16.455-43.348 9.118-85.502 24.033-128.247 35.57-131.175 35.406-279.875 64.576-412.498 20.115-49.418-16.566-90.144-43.46-123.492-83.25-25.43-30.346-45.867-64.391-68.663-96.663-24.993-35.376-53.333-68.38-89.185-93.18-21.158-14.639-45.291-28.706-70.678-34.053-25.029-5.275-51.155-3.922-76.301-.232C96.675 620.64 47.923 636.883 0 654.428v10.803c44.384-15.876 89.544-30.207 136.064-36.54 24.782-3.377 50.466-4.314 75.022 1.206 25.4 5.706 49.723 19.403 71.12 33.913 35.946 24.371 64.445 56.953 89.49 92.09 22.79 31.979 43.165 65.763 68.494 95.875 33.595 39.938 75.14 67.581 124.568 84.811 134.092 46.74 285.614 18.259 418.69-17.848 43.1-11.693 85.46-26.898 128.987-36.897 47.04-10.808 95.319-15.839 143.45-18.447 62.712-3.396 125.426-2.365 188.115.023v-13.205c-61.402-3.033-122.862-4.39-184.321-1.715"/><path d="M1140.455 795.83c-44.485 6.314-88.071 21.253-131.536 32.359C886.614 859.43 749.252 888.51 625.46 848.78c-46.527-14.934-82.325-40.38-113.858-77.264-26.248-30.7-47.921-64.937-71.904-97.366-26.22-35.453-55.57-68.76-92.156-93.789-21.278-14.56-44.674-28.27-70.519-31.778-27.095-3.68-54.935-.456-81.627 4.628C128.27 565.992 63.77 591.123 0 615.573v8.838c59.675-22.798 120.158-45.64 182.984-56.971 26.297-4.742 53.72-7.512 80.296-3.39 25.66 3.978 49.237 18.042 70.337 32.683 36.277 25.172 65.194 58.598 90.939 94.178 23.545 32.54 44.777 66.858 70.731 97.593 31.972 37.86 68.938 63.487 116.407 78.737 126.23 40.56 266.345 11.193 390.967-21.191 41.766-10.852 83.462-25.25 126.077-32.298 48.795-8.07 98.417-10.895 147.821-11.476 55.802-.654 111.707 1.496 167.441 5.917V793.82c-52.009-4.511-104.197-6.862-156.261-6.922-49.171-.055-98.556 2.016-147.284 8.933"/><path d="M1155.136 761.558c-43.731 5.646-86.998 20.035-129.75 30.562-117.649 28.97-249.186 57.297-368.138 19.49-44.612-14.182-78.933-39.499-109.81-74.183-27.092-30.434-49.912-64.336-75.003-96.378-27.42-35.017-57.871-67.892-95.248-92.422-21.825-14.323-44.905-27.081-71.191-29.712-28.13-2.816-56.814 1.252-84.33 6.971C145.47 541.725 72.492 571.65 0 599.33v8.236c68.162-26.12 136.955-53.68 208.667-67.99 27.11-5.411 55.377-9.073 83.002-5.84 26.063 3.053 49.288 16.322 70.818 30.767 36.961 24.804 66.839 57.923 93.633 93.174 24.515 32.255 46.736 66.336 73.381 96.925 31.163 35.78 66.12 61.133 111.667 75.678 121.343 38.745 255.752 10.008 375.694-20.065 43.053-10.793 86.55-25.685 130.638-31.398 48.073-6.23 96.821-7.643 145.242-7.176 50.357.487 100.905 3.003 151.258 7.699v-14.892c-46.03-4.52-92.225-7.14-138.216-8.192-49.979-1.143-100.974-1.11-150.648 5.303"/><path d="M1410.851 557.395c-49.768-6.015-100.471-15.446-150.57-17.387-42.878-1.658-85.768 4.307-128.048 10.764-87.627 13.383-179.776 33.556-267.892 12.79-82.383-19.414-144.246-83.052-208.232-134.156-36.124-28.853-74.371-55.742-117.312-73.486-24.566-10.15-48.7-16.616-75.449-15.86-33.45.943-66.713 8.193-99.028 16.41-92.274 23.463-181.48 58.256-270.94 90.445C62.376 458.069 31.323 469.21 0 479.481v9.79c30.903-10.242 61.541-21.316 92.133-32.406 88.759-32.175 177.304-66.927 268.956-90.167 32.103-8.14 65.163-15.273 98.396-16.06 26.919-.636 51.034 6.18 75.62 16.673 42.862 18.296 80.913 45.643 116.83 74.983C715.53 494.248 776.863 558.66 859.418 578.61c90.226 21.804 184.962.74 274.582-13.814 42.85-6.959 86.319-13.683 129.864-12.638 48.243 1.161 97.282 10.254 145.166 16.05 11.587 1.401 23.254 2.806 34.97 4.255v-11.055c-11.108-1.36-22.164-2.687-33.149-4.013"/><path d="M1320.83 598.63c-22.462-2.14-44.96-5.226-67.552-4.335-45.444 1.796-90.445 10.892-135.013 19.313-95.035 17.955-197.635 40.322-293.202 13.563-81.196-22.736-139.426-90.569-200.327-144.45-34.574-30.591-71.551-58.98-113.65-78.5-24.595-11.401-48.276-18.699-75.606-18.197-32.493.598-64.827 7.418-96.212 15.356-88.796 22.455-174.428 56.575-260.205 88.225-26.27 9.69-52.576 19.373-79.063 28.508v8.523c24.586-8.605 49.021-17.656 73.428-26.71 84.793-31.454 169.482-65.382 257.371-87.414 31.07-7.79 63.106-14.428 95.265-14.777 27.38-.297 50.905 7.465 75.354 19.236 41.74 20.095 78.198 48.99 112.2 80.09 59.995 54.877 117.174 123.848 198.376 147.014 97.758 27.887 203.142 4.766 300.283-14.264 43.41-8.505 87.108-17.736 131.344-20.623 48.252-3.149 98.997 5.449 146.959 10.54 17.69 1.877 35.52 3.832 53.42 5.973v-13.815c-14.748-1.796-29.439-3.48-44.025-5.127-26.355-2.972-52.744-5.616-79.145-8.13"/><path d="M1261.115 566.22c-44.205.092-88.17 7.7-131.599 15.188-91.236 15.73-188.586 37.154-280.374 13.431-81.953-21.184-142.257-86.564-205.032-139.005-35.54-29.686-73.324-57.28-115.991-75.878-24.67-10.753-48.645-17.576-75.753-16.912-33.038.814-65.89 7.884-97.798 15.99-90.68 23.037-178.247 57.552-266.01 89.542C59.15 479.292 29.696 489.996 0 499.952v9.096c28.142-9.564 56.073-19.783 83.965-30.011 86.734-31.804 173.28-66.106 262.954-88.94 31.688-8.07 64.313-15.065 97.122-15.882 27.254-.682 51.067 6.174 75.767 17.203 42.419 18.94 79.853 46.816 114.945 76.885 61.842 52.986 120.974 119.493 202.238 141.877 93.264 25.688 193.21 3.956 286.02-12.86 44.01-7.975 88.468-16.383 133.3-17.555 47.87-1.253 97.328 7.796 144.81 13.307 14.2 1.647 28.509 3.321 42.879 5.086V585.55a8319.822 8319.822 0 00-37.969-4.587c-47.644-5.69-96.883-14.845-144.916-14.743"/></g></svg>