<svg id="Layer_2" version="1.1" viewBox="0 0 1000 1000" xml:space="preserve" xmlns="http://www.w3.org/2000/svg"><path stroke="#0570e8;" stroke-width="6" d="M604.924 410.625l79.955-70.646c6.411-5.665 6.717-15.563.667-21.613l-13.033-13.032c-6.049-6.05-15.948-5.744-21.613.667l-70.646 79.955c-3.327 3.766-4.397 8.771-3.286 13.341L390.176 586.09c-4.57-1.112-9.576-.042-13.341 3.285l-79.955 70.646c-6.411 5.665-6.717 15.563-.668 21.613l13.033 13.032c6.05 6.05 15.948 5.744 21.613-.667l70.646-79.955c3.327-3.766 4.397-8.771 3.285-13.341L591.582 413.91c4.571 1.112 9.576.042 13.342-3.285z" style="animation:dash 3s linear alternate infinite" fill="#0e2257" stroke-dasharray="1000" stroke-dashoffset="1000"/><style/></svg>