<svg width="130" xmlns="http://www.w3.org/2000/svg" height="186"><g stroke-width=".25"><path d="M79.79 1.77l-70.1 169.2-1.5 1.6 71.6-170.8z" stroke="#9e9f9f" fill="#9e9f9f"/><path stroke="#9e9f9f" d="M79.87 2.66s-46 132.6-50.1 143.1" fill="none"/><path stroke="#717070" d="M51.36 150.53l-.6 13.5-7.9-14.3m18.5 1.2l-10 13.1" fill="none"/></g><path d="M13.5 172.62l-12.2 8.3s9.6-11.6 11.3-12.5c0 0-.2 2.7.9 4.2z" fill="#d5dde8"/><path d="M102.42 170.68s23.3-2.9 24.6-3.3h-23.9l-.7 3.3z" fill="#8cabd3"/><path d="M80.4 3.2s-11.3 85-47.8 142.7l32 2s17.8-58.7 16.8-82.4l-1-62.3z" fill="#91a7c4"/><path d="M103.13 167.38l-.7 3.3s-77 6.6-89 2c0 0-1.3-.8-1-4.3 0 0 68.1.4 90.7-1z" fill="#7690b2"/><path d="M12.57 168.36s68.6-9.7 90.5-1c0 0-37.2 2.7-90.5 1z" fill="#89a9d2"/><g fill="#595757"><path d="M80.37 3.2h3.1v163.5h-3.1V3.2z"/><path d="M80.64 1h2.9c.4 0 .8.3.8.8v1.9c0 .4-.4.8-.8.8h-2.9c-.5 0-.8-.4-.8-.8V1.8c0-.5.3-.8.8-.8z"/></g><path d="M82.53 8.07s2.4 36.3-1.4 63.9c-3.9 27.5-11.8 63.6-24.4 91.7 0 0 32.4-1.1 67.3-2.1 0 0-30.9-124.4-41.5-153.5z" fill="#e0e7f2"/><path d="M82.64 18.86s4.7 76.1-25.9 145.6c0 0 27.1-.6 31.8-1.7 0 0 10-39.8-3.5-135.2l-2.4-8.7z" fill="#426da5" fill-opacity=".17"/><path d="M29.11 145.87s-1.2 1.5 0 2.7l32.9 2.6 1.5-3.3-34.4-2zm27.26 14.89l71.8-.5c.5 0 .8.3.8.8v1.7c0 .4-.3.8-.8.8l-71.8.5c-.5 0-.8-.4-.8-.8v-1.7c0-.5.3-.8.8-.8z" fill="#597eab"/><path d="M13.5 172.69L1 181.19s33.9 4.4 66.7 3.7c29.9-.5 54.3-3.7 54.3-3.7l5-13.8s-74.1 9.5-113.5 5.3z" fill="#5a79a0"/></svg>