<svg xmlns="http://www.w3.org/2000/svg" height="68" width="190"><path d="M1.08 28.81s13.8-5.2 30.6-8.3c0 0 22.9-3.7 34-3.2 0 0 5.6.3 7.1-2.4 0 0 6.1-12 13.7-13.7 0 0 1.6.1.6 1.7 0 0-5.6 11.5 3.6 14.9 0 0 29.3 4 61.1 11.1 0 0 16.8-14.2 36.1-15.6 0 0 2.6.6.3 1.7 0 0-14.5 10.1-19.8 17.1 0 0-3.7 5.5 6.5 21.6 0 0-9.9-3.7-23-20.3 0 0-26.2 1.4-46.8 6.5-20.6 5.1-40.5 5.1-40.5 5.1s-30.2-2.3-39.7-7c0 0-2.4-.8-4.2-.8-1.8 0-4.9-.9-7-2.3 0 0 2.9-2.1 6.5-1.8 0 0-3.1-1-9.1 1 0 0-11.1-4.5-10-5.3z" stroke="#eee" fill="#eee"/><path d="M13.39 29.05c0-.9.7-1.6 1.6-1.6.9 0 1.7.7 1.7 1.6 0 .9-.8 1.7-1.7 1.7-.9 0-1.6-.8-1.6-1.7z" stroke="#fff" fill="#fff"/><g stroke="#4f8da2" fill="#4f8da2"><path d="M49.41 41.07s1.1 18.2 11.9 25.4c0 0 3 1.8 2.4-1.3 0 0-1.3-6.2-1.6-8.8 0 0-2.1-9.9 3.7-12.7 0 0 .5-4.2-8.1-4.4 0 0-6.6.2-8.3 1.8zM1.08 28.8s15.7-5.7 30.6-8.2c14.9-2.6 30.6-3.6 34.1-3.3 0 0 5.7-.4 7-2.4 1.6-2.6 6.6-12 14-13.9 0 0 1.3.2.3 1.9 0 0-5.5 11.9 3.6 15 0 0 46.4 7 61.2 11.1 0 0 16.9-14.5 36.1-15.7 0 0 2.3.5.3 1.7 0 0-17.3 12.8-19.8 17.1-2.5 4.3 2.6 16.1 6.4 21.6 0 0-9.7-3.5-22.9-20.3 0 0 7.6 7.6 12.6 10.9 0 0-5.3-5.8-7.1-9.7 0 0 10-2.5 13.4-11 0 0-9.5 6.4-15.8 7.1 0 0-2.7.5-6.1 0 0 0-6.8-.3-10.5-.6-3.6-.2-49.7 1-64.8.6-15.1-.4-34.8-3.4-42.7-2.2 0 0-9.9-4.1-29.9.3z"/><path d="M13.66 29.38c0-.5.4-.9.9-.9.6 0 1 .4 1 .9 0 .6-.4 1-1 1-.5 0-.9-.4-.9-1z"/></g></svg>