<svg xmlns:xlink="http://www.w3.org/1999/xlink" viewBox="0 0 116 82.0211" width="116" xmlns="http://www.w3.org/2000/svg" height="82">
    <defs />
    <g transform="translate(1,1.02)">
        <path class="heart" transform="translate(11.75,0)" id="shape1" d="M45.7,12.1C45.7,12.1,50.8,-3.9,72.7,.9C92.3,7.8,98.2,27.1,81.9,48C63.1,69.1,45.7,80,45.7,80C45.7,80,22.2,64.3,9.4,48C-3.3,31.8,-5.8,10.2,18.6,.9C18.6,.9,38.4,-4.7,45.7,12.1z" stroke="#eb6d71" fill="#eb6d71" />
        <path class="line-shape" transform="translate(14.61,15.92)" id="shape2" stroke="#ffffff" stroke-width="2" d="M0,21.2L10.6,21.2L13.5,15.8L16.6,26L19.3,3.6L23.1,41.6L25.4,16.5L28.5,26.7L31.4,21.3L38,21.1L39.8,16.5L42.9,26.2L45.9,0L50.1,41.8L52.3,15.8L55.5,26L58.8,21L64.4,21.1L67.3,32.1L71.5,16.2L73,21.1L85.8,21.1" fill="none" />
        <path transform="translate(0,36.99)" id="shape3" d="M114,.3L100.4,0M14.6,.2L0,.2" fill="none" />
    </g>
    <style>
        .line-shape
        {
            stroke-dasharray: 100;
            stroke-dashoffset: 100;
            animation: line-shape 2s linear backwards infinite;
        }

        @keyframes line-shape {
            from {
                stroke-dashoffset: 100;
            }

            to {
                stroke-dashoffset: 0;
            }
        }

        .heart {
            fill: red;
            animation: heart 1s ease infinite;
        }

        @keyframes heart {
            0% {
                transform: scaleY(1);
                transform: scaleX(1);
            }

            50% {
                transform: scaleY(1.05);
                transform: scaleX(1.05);
                
            }

            100% {
                transform: scaleY(0.95);
                transform: scaleX(0.95);
            }
        }

    </style>
</svg>
