<svg xmlns:xlink="http://www.w3.org/1999/xlink" viewBox="0 0 130 186" width="130" xmlns="http://www.w3.org/2000/svg" height="186">
    <defs/>
    <g transform="translate(1,1)">
        <g transform="translate(7.19,0.77)">
            <path stroke-width="0.25" id="shape1" d="M71.6,0L1.5,169.2L0,170.8L71.6,0z" stroke="#9e9f9f" fill="#9e9f9f"/>
            <path transform="translate(21.48,0.89)" stroke-width="0.25" id="shape2" stroke="#9e9f9f" d="M50.2,0C50.2,0,4.2,132.6,.1,143.1" fill="none"/>
            <path transform="translate(34.67,147.96)" stroke-width="0.25" id="shape3" stroke="#717070" d="M8.5,.8L7.9,14.3L0,0M18.5,1.2L8.5,14.3" fill="none"/>
        </g>
        <path transform="translate(0.3,167.42)" id="shape4" d="M12.2,4.2L-0,12.5C-0,12.5,9.6,.9,11.3,-0C11.3,-0,11.1,2.7,12.2,4.2z" fill="#d5dde8"/>
        <path transform="translate(101.42,166.38)" id="shape5" d="M0,3.3C0,3.3,23.3,.4,24.6,-0L.7,-0C.7,-0,0,3.3,0,3.3z" fill="#8cabd3"/>
        <path transform="translate(31.6,2.2)" id="shape6" d="M47.8,0C47.8,0,36.5,85,0,142.7L32,144.7C32,144.7,49.8,86,48.8,62.3L47.8,0z" fill="#91a7c4"/>
        <path transform="translate(11.43,166.38)" id="shape7" d="M90.7,-0L90,3.3C90,3.3,13,9.9,1,5.3C1,5.3,-0.3,4.5,0,1C0,1,68.1,1.4,90.7,-0z" fill="#7690b2"/>
        <path transform="translate(11.57,162.76)" id="shape8" d="M0,4.6C0,4.6,68.6,-5.1,90.5,3.6C90.5,3.6,53.3,6.3,0,4.6z" fill="#89a9d2"/>
        <g transform="translate(78.84,0)">
            <path transform="translate(0.53,2.2)" id="shape9" d="M0,0L3.1,0L3.1,163.5L0,163.5L0,0z" fill="#595757"/>
            <path transform="translate(-0,0)" id="shape10" d="M.8,0L3.7,0C4.1,0,4.5,.3,4.5,.8L4.5,2.7C4.5,3.1,4.1,3.5,3.7,3.5L.8,3.5C.3,3.5,0,3.1,0,2.7L0,.8C0,.3,.3,0,.8,0z" fill="#595757"/>
        </g>
        <path transform="translate(55.73,7.07)" id="shape11" d="M25.8,0C25.8,0,28.2,36.3,24.4,63.9C20.5,91.4,12.6,127.5,0,155.6C0,155.6,32.4,154.5,67.3,153.5C67.3,153.5,36.4,29.1,25.8,0z" fill="#e0e7f2"/>
        <path transform="translate(55.74,17.86)" id="shape12" d="M25.9,0C25.9,0,30.6,76.1,0,145.6C0,145.6,27.1,145,31.8,143.9C31.8,143.9,41.8,104.1,28.3,8.7L25.9,0z" fill="#426da5" fill-opacity="0.17"/>
        <g transform="translate(0,144.87)">
            <path transform="translate(27.61,0)" id="shape13" d="M.5,0C.5,0,-0.7,1.5,.5,2.7L33.4,5.3L34.9,2L.5,0z" fill="#597eab"/>
            <path transform="translate(54.57,14.39)" id="shape14" d="M.8,.5L72.6,-0C73.1,-0,73.4,.3,73.4,.8L73.4,2.5C73.4,2.9,73.1,3.3,72.6,3.3L.8,3.8C.3,3.8,0,3.4,0,3L0,1.3C0,.8,.3,.5,.8,.5z" fill="#597eab"/>
            <path transform="translate(0,21.52)" id="shape15" d="M12.5,5.3L0,13.8C0,13.8,33.9,18.2,66.7,17.5C96.6,17,121,13.8,121,13.8L126,0C126,0,51.9,9.5,12.5,5.3z" fill="#5a79a0"/>
        </g>
    </g>
</svg>
