<svg xmlns="http://www.w3.org/2000/svg" xmlns:xlink="http://www.w3.org/1999/xlink" viewBox="0 0 88 134.027" height="134" width="88">
    <defs/>
    <g class="tree" transform="translate(1,1.03)">
        <path d="M1.6,106.8C1.6,106.8,21.2,105,23.7,92.1C26.3,79.3,25.6,51.1,23.7,46.6C23.7,46.6,20.6,41,14,43.3C14,43.3,9.8,45,8.3,47.4C8.3,47.4,8.2,43.2,14.5,40.8C14.5,40.8,3.9,37.4,0,28.9C0,28.9,7.9,37.1,17.6,38.7C17.6,38.7,24,39.5,25.8,43.3C25.8,43.3,26.1,39.5,26.1,37.8C26.1,37.8,19.1,30.3,6,29.6C6,29.6,9.3,28.7,15.6,29.6C15.6,29.6,7.7,22.4,5.5,17.2C5.5,17.2,18.2,31.1,26.1,35.1C26.1,35.1,14.9,20.7,15.4,12.7C15.4,12.7,21.6,28.2,25.3,29.7C25.3,29.7,26.9,30.3,28.7,21.2C28.7,21.2,21,15.2,20.3,7.4C20.3,7.4,24.6,15.7,28.9,18.5C28.9,18.5,30.2,19,30.2,16.5C30.2,16.5,31.5,8.1,28.9,0C28.9,0,34.4,6.8,30.9,22.6C30.9,22.6,31,24.1,33,22.6C33,22.6,38.1,18.5,38.4,16.5C38.4,16.5,37.9,22.7,29.5,26.2C29.5,26.2,28.5,26.6,28.5,29.4C28.5,32.1,28.5,34.2,28.5,34.6C28.5,35,28.7,35.2,31.1,33.3C33.7,31,39,26.8,41.1,22.5C41.1,22.5,39.9,28,33.7,33.1C33.7,33.1,37.1,34,40.4,31.4C40.4,31.4,39.9,34,33.1,34.7C33.1,34.7,29.6,35.6,29.2,39.2C28.8,42.8,29.2,47.5,29.2,47.5C29.2,47.5,29.5,50.1,31.5,49C33.4,47.9,39,45.8,39,45.8C39,45.8,38.8,39,41.9,34.7C41.9,34.7,40.7,42.3,41.3,44.4C41.9,46.4,49.9,40.1,53.1,33.8C53.1,33.8,53.4,41.3,44.3,45.5L50.4,49C50.4,49,43.8,48.2,42.1,46.8C42.1,46.8,32.9,50,32,50.7C31.1,51.5,28.9,52.6,29.2,56.9C29.5,61.2,31.5,90.2,34.9,99.3C34.9,99.3,37.5,106.9,49.2,108C49.2,108,42.8,109.4,34.5,103C34.5,103,32.7,101.8,33.7,104.1C34.8,106.3,37.8,109.1,45.6,110.1C45.6,110.1,41.3,110.7,39.1,110.1C39.1,110.1,39.8,112,47.7,116.7C47.7,116.7,40.3,115.6,31.9,105.2C31.9,105.2,29.8,106.3,36.2,116.9C36.2,116.9,32.2,114.5,29.8,107.9C29.8,107.9,29.3,116.2,25.2,118.5C25.2,118.5,28.6,112,27.8,104.7C27.8,104.7,27.2,103.7,26.9,105C26.6,106.2,18.7,115,13.7,116.2C13.7,116.2,21.9,110.6,24,103.2C24,103.2,23.6,101.7,22,103.8C20.3,106,12.8,117,7.4,117.9C7.4,117.9,13.7,114,17.8,106.3C17.8,106.3,17.3,105.7,15.4,107.6C13.4,109.6,5,113.6,1.3,112.9C1.3,112.9,10.3,110.8,14.1,105.4C14.1,105.4,5.7,107.9,1.6,106.8z" id="shape1" transform="translate(13.12,13.46)" stroke="#7fb80e" fill="#7fb80e"/>
        <path d="M6.6,-0C6.6,-0,1.9,.1,.6,1.9C-0.8,3.8,.6,9,.6,8.8C.6,8.8,5.2,9.2,7.1,6.1C8.9,3.1,7.1,2.8,6.6,-0z" id="shape2" transform="translate(48.66,62.87)" stroke="#7fb80e" fill="#7fb80e"/>
        <path class="darkgreen-leaves" d="M1.8,0C1.8,0,-0,5.6,-0,7.1C-0,8.6,-0.2,11.9,7.2,13.9C7.2,13.9,7.4,12.5,8.5,10.1C9.5,7.6,10.7,-0.6,1.8,0z" id="shape3" transform="translate(56.89,64.8)" stroke="#7fb80e" fill="darkgreen"/>
        <path class="darkgreen-yellow" d="M-0,1.3C-0,1.3,2.2,5.2,2.8,7.1C3.4,9.1,9,10.1,12.1,7.1C12.1,7.1,12.3,2,6.9,0C6.9,0,2.8,-0.3,-0,1.3z" id="shape4" transform="translate(66.08,61.91)" stroke="#7fb80e" fill="yellow"/>
        <path class="red-leaves"d="M0,6.4C0,6.4,2.6,2.8,3.5,1.4C4.4,-0.1,8.4,-1.1,11.4,1.9C11.4,1.9,13.1,3.2,13.5,3.6C13.5,3.6,11.7,5.6,11.5,6.6C11.2,7.6,11.4,9.9,5.8,9.9C5.8,9.9,1,8.3,0,6.4z" id="shape5" transform="translate(72.47,53.36)" stroke="#7fb80e" fill="red"/>
        <path class="darkgreen-blue" d="M-0,6C-0,6,1.2,1.7,4,.5C6.8,-0.8,11.7,.8,11.7,.8C11.7,.8,10.5,7.1,5.8,7.6C1,8,-0,6.3,-0,6z" id="shape6" transform="translate(61.75,53.45)" stroke="#7fb80e" fill="blue"/>
        <path d="M.4,10C.4,9.7,-0.9,6.1,1,2.8C2.8,-0.5,7,0,7,0C7,0,8.8,4,5.8,7C2.8,10,.4,10,.4,10z" id="shape7" transform="translate(56.41,43.53)" stroke="#7fb80e" fill="#7fb80e"/>
        <path d="M-0,3.6C-0,3.6,1.3,8.2,4.9,8.2C8.5,8.2,9.5,5.6,11.1,4.9C11.1,4.9,9.4,-0,5.6,-0C1.7,-0,-0,3.6,-0,3.6z" id="shape8" transform="translate(67.95,42.52)" stroke="#7fb80e" fill="#7fb80e"/>
        <path d="M2.9,-0C2.9,-0,.3,3.5,0,4.8C-0.3,6.1,.5,9.5,5.1,11.5C5.1,11.5,9.7,10,8.7,4.1C8.7,4.1,7.9,.6,2.9,-0z" id="shape9" transform="translate(61.8,32.05)" stroke="#7fb80e" fill="#7fb80e"/>
        <path d="M.1,8.9C.1,8.9,-0.9,3.5,2.7,1.2C6.3,-1,10.2,.4,10.2,.4C10.2,.4,12.4,5.2,7.4,7.9C2.5,10.7,.1,8.9,.1,8.9z" id="shape10" transform="translate(68.84,22.87)" stroke="#7fb80e" fill="#7fb80e"/>
        <path d="M-0,5.5C-0,5.1,.3,1.8,2.4,.5C4.4,-0.8,8.6,.9,8.6,.9C8.6,.9,8.3,5.4,6.2,6.5C4,7.5,-0,5.5,-0,5.5z" id="shape11" transform="translate(72.28,34)" stroke="#7fb80e" fill="#7fb80e"/>
        <path d="M5.5,-0C5.5,-0,.3,.3,-0,4.5C-0.3,8.7,3.7,11.7,3.7,11.7C3.7,11.7,8.2,11,9,7C9.7,3,5.5,-0,5.5,-0z" id="shape12" transform="translate(52.66,23.53)" stroke="#7fb80e" fill="#7fb80e"/>
        <path d="M0,4.3C0,4.3,2.9,0,6.7,0C10.5,0,13.9,4.6,13.9,4.6C13.9,4.6,10.7,9.2,7.2,9.2C3.7,9.2,.3,4.3,0,4.3z" id="shape13" transform="translate(50.69,12.52)" stroke="#7fb80e" fill="#7fb80e"/>
        <path d="M1.3,12.1C1.3,12.1,-1.4,8,.9,3.5C3.2,-1,7.6,.6,9.1,-0C9.1,-0,12.5,4.3,9.4,8.3C9.4,8.3,7.5,12.7,1.3,12.1z" id="shape14" transform="translate(43.92,4.21)" stroke="#7fb80e" fill="#7fb80e"/>
        <path d="M2.3,-0C2.3,-0,8.4,-0.4,9.9,4.8C9.9,4.8,11,7.6,8.3,13.9C8.3,13.9,1.8,12.1,.3,8.5C-1.1,4.9,2.3,-0,2.3,-0z" id="shape15" transform="translate(31.99,0)" stroke="#7fb80e" fill="#7fb80e"/>
        <path d="M4.1,-0C4.1,-0,10.1,2.1,9.5,7.1C9.5,7.1,10.2,9.3,4.8,12.9C4.8,12.9,.3,10.1,0,5.5C0,5.5,.8,.7,4.1,-0z" id="shape16" transform="translate(22.92,5.85)" stroke="#7fb80e" fill="#7fb80e"/>
        <path d="M.9,.2C.9,.2,5,-0.9,8,1.9C8,1.9,9.6,4.1,8.8,9.4C8.8,9.4,3.4,10.5,.8,6.9C.8,6.9,-1.1,3.3,.9,.2z" id="shape17" transform="translate(17.4,16.21)" stroke="#7fb80e" fill="#7fb80e"/>
        <path d="M2.4,-0C2.4,-0,9,1,9.8,5.5C10.6,10,8.4,9.6,8.4,12.9C8.4,12.9,3,12.8,.7,8.2C-1.5,3.6,2.1,2.3,2.4,-0z" id="shape18" transform="translate(7.94,20.03)" stroke="#7fb80e" fill="#7fb80e"/>
        <path d="M.7,.1C.7,.1,11.8,-2,10.6,11.7C10.6,11.7,-3.2,13.8,.7,.1z" id="shape19" transform="translate(1.72,30.51)" stroke="#7fb80e" fill="#7fb80e"/>
        <path d="M0,9.4C0,9.4,-0.1,1.6,4.3,.7C8.8,-0.3,12.6,0,12.6,0C12.6,0,14.2,6,8.2,9.4C8.2,9.4,4.1,11.1,0,9.4z" id="shape20" transform="translate(0,44.74)" stroke="#7fb80e" fill="#7fb80e"/>
        <path d="M0,4.8C0,4.8,3.8,.5,8.1,-0C12.5,-0.5,15.4,4.5,15.4,4.5C15.4,4.5,12.5,9.2,7.6,9.2C2.8,9.2,0,4.8,0,4.8z" id="shape21" transform="translate(2.69,54.85)" stroke="#7fb80e" fill="#7fb80e"/>
        <path d="M7.3,-0C7.3,-0,11.3,3.3,9.6,8.6C7.8,14,3.5,15.4,3.5,15.4C3.5,15.4,-1,12.5,.2,5.2C.2,5.2,2.9,-0,7.3,-0z" id="shape22" transform="translate(12.82,60.92)" stroke="#7fb80e" fill="#7fb80e"/>
        <path d="M0,.4C0,.4,-0.3,6.4,2.7,8.9C5.7,11.5,9.7,11,9.7,11C9.7,11,11.8,6.9,7.9,1.6C7.9,1.6,4.2,-1,0,.4z" id="shape23" transform="translate(23.23,61.33)" stroke="#7fb80e" fill="#7fb80e"/>
        <path d="M.1,.4C.1,.4,3.8,-0.8,6.4,.9C9,2.5,9.4,5.8,9.4,5.8C9.4,5.8,6.6,8.4,2.9,6.3C-0.8,4.3,.1,.4,.1,.4z" id="shape24" transform="translate(13.12,34.75)" stroke="#7fb80e" fill="#7fb80e"/>
        <path d="M-0,.9C-0,.9,3.5,-0,4.3,-0C5.1,-0,8.3,3.3,8.3,3.3C8.3,3.3,8.7,6,4.3,6C-0,6,-0,.9,-0,.9z" id="shape25" transform="translate(14.25,51.05)" stroke="#7fb80e" fill="#7fb80e"/>
        <path d="M5.4,-0C5.4,-0,2,-0,.7,2.4C-0.7,4.9,.3,9.9,.3,9.9C.3,9.9,4.4,10.9,6.1,7.5C7.7,4.1,5.4,-0,5.4,-0z" id="shape26" transform="translate(44.84,49.31)" stroke="#7fb80e" fill="#7fb80e"/>
        <path d="M2,0C2,0,-0.9,2.2,.2,5.3C1.4,8.5,5.6,10.4,5.6,10.4C5.6,10.4,7.8,10.2,6.9,4C6.9,4,7,0,2,0z" id="shape27" transform="translate(34.46,14.06)" stroke="#7fb80e" fill="#7fb80e"/>
        <path d="M.4,.2C.4,.2,4.5,-0.9,6.2,1.7C7.8,4.2,6.6,7.2,6.6,7.2C6.6,7.2,4,8.6,.9,4.8C.9,4.8,-0.7,1.4,.4,.2z" id="shape28" transform="translate(21.17,27.5)" stroke="#7fb80e" fill="#7fb80e"/>
        <path d="M.3,.7C.3,.7,-0.9,3.5,1.3,4.9C3.5,6.4,5.5,5.4,5.5,5.4C5.5,5.4,6.6,3.7,4.4,1.2C2.2,-1.2,.3,.7,.3,.7z" id="shape29" transform="translate(55.68,37.08)" stroke="#7fb80e" fill="#7fb80e"/>
        <path d="M0,3.6C0,3.6,3.2,4.8,5.4,1.1C5.4,1.1,3.7,-0.2,2.3,-0C.8,.2,-0.2,3.5,0,3.6z" id="shape30" transform="translate(46.12,26.92)" stroke="#7fb80e" fill="#7fb80e"/>
        <path d="M-0,.3C-0,.3,.5,4.2,2.4,5.6C4.2,7,7.4,6.4,7.5,6C7.6,5.6,5.9,.8,5,.3C4.2,-0.3,-0,.1,-0,.3z" id="shape31" transform="translate(45.95,18.01)" stroke="#7fb80e" fill="#7fb80e"/>
        <path d="M1.8,.1C1.8,.1,-0.8,2.2,.2,4.5C1.3,6.9,3.9,8.4,3.9,8.4C3.9,8.4,6.1,6.5,5.4,3.3C4.7,.1,1.8,-0.3,1.8,.1z" id="shape32" transform="translate(62.43,21.96)" stroke="#7fb80e" fill="#7fb80e"/>
        <path d="M1.1,-0C1.1,-0,-1.2,2.7,.8,5.1C2.9,7.6,4.1,7.5,4.1,7.5C4.1,7.5,5.8,5.6,5,3C4.1,.3,1.1,.5,1.1,-0z" id="shape33" transform="translate(34.87,32.36)" stroke="#7fb80e" fill="#7fb80e"/>
        <path d="M1.6,0C1.6,0,-0.8,2.2,.2,3.7C1.3,5.2,4.3,7.3,4.3,7.3C4.3,7.3,5.1,5.3,4,3.1C2.8,.8,1.8,-0.3,1.6,0z" id="shape34" transform="translate(30.42,24.54)" stroke="#7fb80e" fill="#7fb80e"/>
        <path d="M0,.7C0,.7,.5,3.4,2.4,3.6C4.2,3.8,5.6,3.8,5.6,3.8C5.6,3.8,4.4,.4,3.4,.1C2.4,-0.2,0,.1,0,.7z" id="shape35" transform="translate(26.42,46.21)" stroke="#7fb80e" fill="#7fb80e"/>
        <path d="M4.2,-0C4.2,-0,2.4,1,1.8,1C1.1,1,0,3.5,0,4.9C0,6.3,2.1,4.3,3.4,3.5C4.7,2.6,4.2,-0,4.2,-0z" id="shape36" transform="translate(42.73,39.25)" stroke="#7fb80e" fill="#7fb80e"/>
        <path d="M3.2,-0C3.2,-0,1.7,.3,1.1,.6C.5,.9,-0,2.4,-0,2.4L1.1,3.9C1.1,3.9,3.2,2.1,3.2,1.8C3.2,1.5,3.4,-0,3.2,-0z" id="shape37" transform="translate(49.46,34.31)" stroke="#7fb80e" fill="#7fb80e"/>
        <path d="M-0,1.9C-0,1.9,1.9,3.3,2.8,2.8C3.6,2.2,2.3,-0,2.3,-0C2.3,-0,.5,.4,-0,1.9z" id="shape38" transform="translate(51.83,41.3)" stroke="#7fb80e" fill="#7fb80e"/>
        <path d="M.2,3.3C.2,3.3,-0.5,6.1,.5,7.1C1.6,8.2,4,4.9,4,4.9C4,4.9,4.2,1,3.7,.2C3.2,-0.7,.2,1.8,.2,3.3z" id="shape39" transform="translate(28.17,17.29)" stroke="#7fb80e" fill="#7fb80e"/>
        <path d="M.1,1.2C.1,1.2,1.7,3.6,2.7,4.2C3.8,4.8,3,1.2,3,1.2L.8,0C.8,0,-0.5,-0.3,.1,1.2z" id="shape40" transform="translate(28.55,36.96)" stroke="#7fb80e" fill="#7fb80e"/>
    </g>
    
    <style>
        .darkgreen-leaves
        {
        
         offset-path: path('M1.8,0C1.8,0,-0,5.6,-0,7.1C-0,8.6,-0.2,11.9,7.2,13.9C7.2,13.9,7.4,12.5,8.5,10.1C9.5,7.6,10.7,-0.6,1.8,0z');
        animation: shaking linear infinite 5s;
        }
        @keyframes shaking {
        0% {  offset-distance: 0;
            }
            100% {
        transform: translateY(100px);
                offset-distance: 100%;
            }
    
        }
        }
        
    </style>
</svg>
