<?xml version="1.0" ?><!DOCTYPE svg  PUBLIC '-//W3C//DTD SVG 1.1//EN'
        'http://www.w3.org/Graphics/SVG/1.1/DTD/svg11.dtd' >
<svg enable-background="new 0 0 48 48" height="48px" version="1.1" viewBox="0 0 48 48" width="48px" xml:space="preserve"
     xmlns="http://www.w3.org/2000/svg" xmlns:xlink="http://www.w3.org/1999/xlink"><g id="Layer_4"><path d="M35.014,29.403l2.409,2.896l-9.409,6.957C28.01,39.26,28.01,39.26,28.01,39.26   c-1.165,0.863-1.144-0.5-1.144-0.5v-1.92v-0.289v-3.717V14.359h0.071v-0.566h4.772v-0.006h0.536c1.143,0,2.07-0.931,2.07-2.076   V9.983c0-1.147-0.928-2.076-2.07-2.076H31.71h-4.772V6.662c0.625-0.707,1.013-1.625,1.013-2.637c0-2.215-1.794-4.009-4.007-4.009   c-2.214,0-4.009,1.793-4.009,4.009c0,1.012,0.389,1.93,1.011,2.637v1.245h-0.093H17.47h-1.828c-1.146,0-2.075,0.928-2.075,2.076   v1.728c0,1.146,0.93,2.076,2.075,2.076h1.828v0.006h3.382v19.041v3.717v0.289v1.981c-0.005,0.247-0.086,1.139-1.051,0.438   l-9.357-6.798l2.544-3.057l-9.166-0.021l1.685,9.006l2.594-3.116l15.758,12.709L39.84,35.202l2.654,3.188l1.684-9.006   L35.014,29.403z M23.943,2.396c1.104,0,2.002,0.897,2.002,2.004c0,1.105-0.897,2.002-2.002,2.002c-1.107,0-2.006-0.897-2.006-2.002   C21.938,3.293,22.836,2.396,23.943,2.396z" fill="#ffffff"/></g></svg>