<?xml version="1.0" ?><svg  fill="#ffffff" id="Layer_1" style="enable-background:new 0 0 512 512;" version="1.1" viewBox="0 0 512 512" xml:space="preserve" xmlns="http://www.w3.org/2000/svg" xmlns:xlink="http://www.w3.org/1999/xlink"><g id="XMLID_1_"><g id="XMLID_14_"><g id="XMLID_15_"><path d="M308.4,391.8c0,0-0.1,0-0.1,0c-2.2-0.1-3.9-1.9-3.8-4.1l13.9-376.7c0.1-2.2,2-3.9,4.1-3.8     c2.2,0.1,3.9,1.9,3.8,4.1L312.4,388C312.3,390.2,310.5,391.8,308.4,391.8z" id="XMLID_16_"/></g></g><g id="XMLID_10_"><path d="M239.2,504.7c-35.7,0-71.1-4.9-105.5-14.5c-41-11.5-82.3-25.8-107.1-52.2C24.9,436.2,19,426,14.8,418    c-10.2-19.5-9.1-22.2-8.3-24c0.7-1.7,2.4-2.8,4.3-2.9h0l491.3-8.9c0,0,0,0,0.1,0c2.1,0,3.9,1.7,3.9,3.9c0,2-1.5,3.7-3.4,4    c-2.9,1.4-11.8,12.1-15.7,16.7c-3.2,3.8-5.1,6.1-6.3,7.2c-59,54.7-138.9,86.9-224.8,90.5C250.3,504.6,244.8,504.7,239.2,504.7z     M14.5,398.9c2.9,8.5,15.2,30.6,17.9,33.8c23.5,25,63.6,38.8,103.5,50c38.9,10.9,79.1,15.6,119.6,13.9    c84.1-3.6,162.2-35,219.8-88.4c0.9-0.8,3.2-3.6,5.6-6.5c4-4.8,7.2-8.6,9.9-11.4C420.9,391.5,55.5,398.1,14.5,398.9z" id="XMLID_11_"/></g><g id="XMLID_6_"><path d="M56.3,383.8c-1.5,0-3.3-0.4-4.8-1.7c-3.2-2.8-2.3-7-2-8.6c1.5-7.4,3-14.9,4.5-22.3    c8.5-42.5,17.2-86.5,32.2-128.1c18.7-51.7,54-92.4,80.3-117.3c41-39,93.6-70.2,152.1-90.2c0,0,0,0,0,0c2.1-0.7,4.3,0.4,5,2.5    c0.7,2-0.3,4.1-2.2,4.9c-3.4,2.7-9.6,23.5-11.6,30.3c-0.9,3-1.6,5.4-2.1,6.7c-5,14.1-9.5,28.6-13.3,43.1    c-6.1,23.4-10.6,47.3-13.4,71.1c-0.6,5.1-1.1,10.1-1.5,14.9c-2.2,25.3-2.2,48.1,0.1,69.6c2.6,24.4,5.6,48,14.8,69.6l0.9,2.2    c2.9,6.9,6,13.9,8.3,21.3c0.2,0.5,0.3,1.1,0.5,1.6c1.3,4.1,2.8,8.7,2.5,13.2c-0.1,1.3-0.4,5.2-3.3,7.2c-2.9,2.1-6.5,1.2-9.9,0.3    c-0.5-0.1-1.1-0.3-1.6-0.4c-0.9-0.2-1.7-0.4-2.6-0.6c-35-8.2-71-12.6-107.1-13c-37-0.4-70.3,8-100.7,17.1c-6,1.8-13.9,4.1-22,6.1    C58.8,383.5,57.6,383.8,56.3,383.8z M310.2,26.8c-53.1,19.7-100.7,48.8-138.3,84.6c-36.3,34.5-64.1,75.1-78.3,114.3    c-14.8,41-23.5,84.7-31.9,126.9c-1.5,7.5-3,14.9-4.5,22.4c-0.1,0.3-0.1,0.6-0.1,0.8c0.1,0,0.3-0.1,0.5-0.1c7.9-2,15.7-4.3,21.6-6    c31-9.3,64.9-17.8,103-17.4c36.7,0.4,73.3,4.8,108.8,13.2c0.9,0.2,1.7,0.4,2.6,0.6c0.6,0.1,1.2,0.3,1.7,0.4    c1.1,0.3,2.4,0.6,3.2,0.7c0.1-0.3,0.1-0.7,0.2-1.2c0.2-3-1-6.8-2.1-10.2c-0.2-0.6-0.4-1.1-0.5-1.7c-2.2-7-5.2-13.9-8-20.5    l-0.9-2.2c-9.6-22.5-12.8-46.8-15.4-71.8c-2.3-22-2.4-45.2-0.1-71.1c0.4-4.9,0.9-10,1.6-15.2c2.8-24.1,7.4-48.4,13.6-72.2    c3.8-14.8,8.4-29.5,13.5-43.8c0.4-1.2,1.1-3.6,2-6.3C305.4,40,307.9,32.3,310.2,26.8z" id="XMLID_7_"/></g><g id="XMLID_2_"><path d="M312.5,374.7c-1.7,0-3.3-0.4-4.6-1.3c-1.4-1-3.7-3.6-2.3-8.9c0.6-2.1,1.6-3.8,2.5-5.3l0.2-0.4    c6.6-10.7,9.9-23.6,13.1-36c0.5-1.9,1-3.8,1.5-5.7c4.6-17.3,8.2-33.5,11-49.3c6.4-36.2,8.5-68.9,6.3-100    c-1.3-18.7-3.2-37.6-5.7-56.2c-0.9-6.7-2-13.4-3-20c-1.8-11.1-3.7-22.5-4.5-33.9l0-0.6c-0.9-11.4-1.7-23.1-7.8-32.1    c-0.8-0.8-1.2-1.9-1.2-3.1c0-1.7,1.1-3.3,2.6-4.1c1.4-0.8,3.1-0.7,4.5,0.1c0.7,0.2,1.3,0.6,1.8,1.1c41.9,45,72.3,101.4,87.7,162.9    c9.4,37.4,12.6,75.3,9.6,112.7l-0.3,3.7c-1.2,14.8-2.4,30.1-7.7,44.8c-0.6,1.7-1.4,3.9-3.4,5.6c-2.7,2.4-6.1,2.6-8.8,2.6    c-5.6-0.1-11.1-1.2-16.3-2.3c-5.3-1.1-10.3-2.1-15.3-2.2c-0.1,0-0.3,0-0.4,0c-9.5,0-19.6,3.6-30.8,11.1c-2.5,1.7-4.9,3.7-7.3,5.8    c-2.5,2.2-5.2,4.5-8.1,6.4C325.8,369.9,318.6,374.7,312.5,374.7z M332.4,36.8c1.5,6.5,2,13.2,2.4,19.5l0,0.6    c0.8,11.1,2.7,22.4,4.4,33.3c1.1,6.6,2.2,13.5,3.1,20.2c2.5,18.7,4.4,37.8,5.7,56.7c2.2,31.8,0.1,65.1-6.4,101.9    c-2.9,16-6.5,32.4-11.1,49.9c-0.5,1.9-1,3.8-1.5,5.7c-3.3,13-6.8,26.4-14,38.2l-0.3,0.4c-0.7,1.1-1.4,2.2-1.6,3.2    c0,0.1-0.1,0.3-0.1,0.4c2.1-0.3,6.1-2,8.3-3.5c2.5-1.7,4.9-3.7,7.3-5.8c2.6-2.2,5.2-4.5,8.1-6.4c12.7-8.4,24.4-12.5,35.6-12.4    c5.8,0.1,11.4,1.2,16.8,2.3c5.1,1.1,10,2.1,14.9,2.2c1.8,0,2.9-0.2,3.4-0.6c0.5-0.4,0.9-1.5,1.2-2.5c5-13.7,6.1-27.8,7.2-42.7    l0.3-3.7c2.9-36.6-0.2-73.6-9.4-110.2C393.3,129,367.6,78.5,332.4,36.8z" id="XMLID_3_" /></g></g></svg>