<svg height="512" viewBox="0 0 60 58" width="512" xmlns="http://www.w3.org/2000/svg"><g id="019---Canoeing"><path id="Shape" d="m14 39h32c4.4162219-.0049599 7.9950401-3.5837781 8-8v-2h-1c-.5522847 0-1 .4477153-1 1 .0015938 1.8570036-.7353923 3.6384071-2.0484926 4.9515074s-3.0945038 2.0500864-4.9515074 2.0484926h-30c-3.8641657-.0044086-6.99559136-3.1358343-7-7 .0019672-.2605963-.10154856-.5109097-.287-.694-.353-.361-.592-.306-1.713-.306v2c.00495988 4.4162219 3.58377808 7.9950401 8 8z"/><path id="Shape" d="m48.334 0-5.668 5.66c-.8438523.84073521-1.2690959 2.01382106-1.16 3.2.1286402 1.2201755-.2839961 2.4354242-1.129 3.325l-22.841 22.815h2.831l21.426-21.4c.8324865-.8597739 2.0185416-1.2817536 3.207-1.141 1.2273294.1537303 2.4567389-.2689946 3.33-1.145l5.67-5.66z"/><path id="Shape" d="m32.829 25.382-1.417 1.415 8.221 8.203h2.83z"/><path id="Shape" d="m17.337 5.663-5.673-5.663-5.664 5.66 5.67 5.654c.8740836.8746899 2.102831 1.2971872 3.33 1.145 1.1879448-.136224 2.3720507.2850621 3.207 1.141l8.961 8.951 1.416-1.415-8.961-8.951c-.8427662-.8922763-1.2530625-2.1085511-1.123-3.329.1061768-1.18428778-.3200273-2.35442498-1.163-3.193z"/><path id="Shape" d="m59 52c-5.166 0-5.442 4-9.671 4s-4.484-4-9.671-4c-5.141 0-5.444 4-9.665 4s-4.482-4-9.667-4c-5.162 0-5.438 4-9.664 4s-4.479-4-9.662-4c-.55228475 0-1 .4477153-1 1s.44771525 1 1 1c4.23 0 4.479 4 9.662 4 5.162 0 5.438-4 9.664-4s4.48 4 9.667 4c5.222 0 5.37-4 9.665-4 4.235 0 4.483 4 9.671 4 5.22 0 5.378-4 9.671-4 .5522847 0 1-.4477153 1-1s-.4477153-1-1-1z"/><path id="Shape" d="m59 46c-.8425564-.0092784-1.6807485.1221961-2.48.389 2.179-4.67 1.908-11.716-.52-15.706.0810602 2.7053158-.9360621 5.3283029-2.8197779 7.2717326-1.8837159 1.9434296-4.4736943 3.0418883-7.1802221 3.0452674h-32c-2.7070518-.0017096-5.29801853-1.0996444-7.18209795-3.0434492-1.88407942-1.9438047-2.90064737-4.5677634-2.81790205-7.2735508-2.431 3.995-2.7 11.044-.519 15.706-.79973732-.2662233-1.63815999-.397681-2.481-.389-.55228475 0-1 .4477153-1 1s.44771525 1 1 1c4.23 0 4.479 4 9.662 4 5.162 0 5.438-4 9.664-4s4.48 4 9.667 4c5.222 0 5.37-4 9.665-4 4.235 0 4.483 4 9.671 4 5.22 0 5.378-4 9.671-4 .5522847 0 1-.4477153 1-1s-.4477153-1-1-1z"/></g></svg>