<svg class="earth" xmlns="http://www.w3.org/2000/svg" xmlns:xlink="http://www.w3.org/1999/xlink" viewBox="0 0 128 128" height="128" width="128">
    <defs/>
    <g  transform="translate(1,1)">
        <g>
            <path d="M126,63C126,28.2,97.8,0,63,0C28.2,0,0,28.2,0,63C0,97.8,28.2,126,63,126C97.8,126,126,97.8,126,63z" id="shape1" stroke="#ffffff" stroke-width="2" fill="transparent"/>
        </g>
        <g transform="translate(2.26,0.76)">
            <path d="M.6,9.3C3,9.3,3.5,8.6,3.5,8.1C3.5,7.5,3.5,6.7,4,6.2C4.5,5.7,5,5.4,5,5.4C5,5.4,5.5,5.7,5,6.9C4.5,8.1,4,8.6,4,8.6L5.7,8.9C5.7,8.9,6.7,8.3,6.7,8.6C6.7,8.9,7.7,8.1,8.1,8.1C8.5,8.1,9,6.9,9,6.9C9,6.9,8.7,6.5,9,6.2C9.3,5.9,8.5,5,8.5,5C8.5,5,7.9,4.3,7.5,3.4C7,2.6,7.3,3.4,7,2.6C6.7,1.7,5.5,.3,5.8,.3C6.2,.3,5.5,.3,5.5,.3C5.5,.3,5,-0.3,4.3,.2C3.7,.7,3.5,.5,3.5,1.5C3.5,2.4,3.5,2.5,3.5,3.2C3.5,3.8,2.6,4.1,2.4,4.6C2.2,5,1.3,5.4,1,5.4C.6,5.4,-0.4,5.6,.2,6.2C.8,6.9,1.3,6.9,1.6,6.9C1.9,6.9,.6,8.5,.6,8.9C.6,9.3,.6,9.8,.6,9.3z" id="shape2" transform="translate(29.73,25.42)" stroke="#ffffff" fill="transparent"/>
            <path d="M44.8,50.7L44.9,51.9C44.9,51.9,45.6,52.9,45.8,53.1C46.1,53.2,47.6,53.9,47.6,54.4C47.6,54.9,48.6,55.9,48.6,55.9L49.6,57C49.6,57,50.9,58.9,50.9,59.7C50.9,60.5,51.7,60.5,51.6,60.3C51.6,60.3,52.7,60.7,52.7,61.1C52.7,61.5,53.6,63.8,54.9,63.8C56.1,63.8,56.9,65.2,56.9,65.2C56.9,65.2,58.3,66,58.3,66C58.3,66,57.4,68.4,60.6,66.9C61.7,66.4,62.5,65.2,62.5,65.2L64.9,64.6C64.9,64.6,65.4,65.1,64.9,66.9C64.4,68.8,64.6,70.9,64,71.4C63.5,72,62.8,72.5,62,74.2C61.2,75.9,60,77.4,59.3,78.4C58.7,79.5,56.6,81.9,56.6,83.7C56.6,85.6,56.3,86.5,57.3,87.6C58.3,88.6,58.3,89,58.3,90.9C58.3,92.7,58.6,93.8,56.9,94.8C55.2,95.9,54.4,97.3,54.4,97.9C54.4,98.4,55,100.6,53.3,103.3C52.6,104.5,53.3,103.3,53.3,103.3C53.3,103.3,53.3,104.6,51.7,107.8C50,111,49,110.7,47.6,111.1C46.2,111.5,45.2,112.7,45.2,112.7C45.2,112.7,44.7,112.9,43.2,110C41.6,107.1,42,110.2,41.3,109C40.5,107.8,39.6,105.7,39.5,105.4C39.3,105.1,39.1,104.9,38.5,103.7C37.8,102.5,37.4,102.6,36.7,101.9C36,101.2,35.1,98.2,35.5,95.1C35.7,94.2,34.4,91.9,33.2,90.5C32.1,89,30.8,88.1,29.7,87.6C28.5,87,28.4,84.9,28.3,84.1C28.2,83.3,26.7,80.5,25.4,81.1C24.2,81.8,23.8,82.3,23.1,80.8C22.4,79.2,18.2,82.8,17.3,83.7C16.4,84.7,15.4,83.2,12.5,84.5C9.6,85.8,10.7,84.5,7.9,83.7C5.1,82.9,6.5,81.3,3.3,79.9C.2,78.4,1.3,77.6,1.3,76.9C1.3,76.1,1.6,72.9,.5,71C-0.5,69.2,0,67.4,.8,65.2C1.7,63,2.5,61.3,3.6,60.5C4.7,59.7,3.2,59.1,3.6,57.8C4,56.5,6.5,54.6,6.5,52.7C6.5,50.7,7,53.5,8.6,52.7C10.1,51.9,11.9,51.2,13,50C14.2,48.8,15.3,48.6,16.7,48.3C18.1,48,20,47.2,20.8,47.2C21.5,47.2,21.7,48.7,21.8,49C21.9,49.2,20.5,50.2,21.8,50.6C23.1,50.9,25.4,51.5,26.1,51.5C26.9,51.5,31,53.5,31.5,51.5C32,49.2,33.2,49.2,34.8,49.6C36.3,50,37.2,50.3,38.5,49.6C39.7,49,41.5,48.3,43.7,48.3C45.8,48.3,45.2,43,45.2,42.2C45.2,41.4,43.9,41.2,43.2,42C42.4,42.7,42.8,43.5,41.3,42.9C39.7,42.2,39.4,44.7,37.1,43.4C34.7,42.1,36.3,41,34.3,40.3C32.3,39.6,30.8,41.7,31.5,42C32.1,42.2,35,46.1,32.1,44.5C29.2,42.9,30.3,40.9,29.3,41.6C28.3,42.2,29.1,41,27.8,40C26,38.7,23.5,38.9,23.5,37.9C23.5,36.9,22.2,36,21.8,36.8C21.4,37.6,21.6,39,23.5,39.8C25.4,40.6,26.7,41.3,27,41.6C27.4,41.9,27.4,42.2,26.5,42.2C25.6,42.2,27.6,43.5,26.6,44.5C25.7,45.5,24.5,45.7,25,45.7C25.4,45.6,27.6,48,23.5,46.5C19.4,45,23.4,45.7,24.4,45.1C25.4,44.5,28.4,42.8,22.6,42.2C16.7,41.7,20.8,41.8,19.8,40.3C18.9,38.8,17.3,40.6,17.3,40.9C17.3,41.2,15.4,41.6,14.7,41.6C13.9,41.6,14.2,44.4,12.5,45.7C10.8,46.9,11.9,47.9,11.5,49C11.1,50,9.6,52.1,5.6,50.6C1.7,49,4.8,49.2,4,47.2C2.8,44.6,6.4,42.6,6,42.9C6,42.9,10.5,41,9.7,39.8C8.9,38.5,8.9,38.3,7.3,38.3C5.6,38.3,6.3,36.5,8.6,36C10.8,35.6,11,33.3,12.8,31.9C14.5,30.5,13,30.2,15.3,29.4C17.6,28.6,15,25.5,17.7,24.8C19,24.5,19.2,27.4,19.8,24.3C20,23.2,18.4,22,18,21.7C17.7,21.3,16.3,25.3,15.3,24.3C14.3,23.2,13.5,22.7,14.3,21.2C14.9,20.2,18.7,16.3,19.1,14.9C19.5,13.4,20.1,12.2,22.6,10.8C25,9.3,29.7,6.8,31.5,7.7C33.2,8.7,34.5,10.1,36.1,7.4C37.7,4.7,37.9,5.9,37.9,5.9C35.8,4.4,34.6,3.2,34.1,2.2C33.7,1.1,35.9,.7,35.8,2.2C35.5,5.7,43.2,5,43.2,5C43.2,5,40.9,4.6,40.6,3.7C40.2,2.8,42.1,3,43.7,3.4C45.2,3.7,44.5,2.5,43.2,2.2C41.8,1.8,42.7,.6,42.4,.9C42.1,1.1,40.8,.8,40.8,.8C40,0,55.5,.3,71.3,11.7C87.1,23.1,92.5,40.1,94.6,47.2C94.6,47.2,94.6,47.2,94.6,47.2C94.6,47.2,93.9,46.7,93.9,47.2C94,47.8,95.7,54.9,95.7,56.4C95.7,57.6,95.3,59.4,95.3,59.9C95.3,60.5,95.1,57.5,93.9,56.4C92.7,55,93.9,59.9,93.9,59.9C93.9,59.9,95.7,66,95.7,67.1C95.7,68.1,95.3,71.7,95.3,69.3C95.3,69.3,95.2,75.9,94.6,76.1C93.9,76.2,95,69.4,93.3,65.2C92.5,63.4,94.6,66,94.6,65.2C94.6,64.4,93.3,59.9,93.3,59.3C93.1,56.4,93.5,54.3,93,53.3C92.5,52.4,92,52.8,90.8,50.1C89.9,48,88.8,47.1,89.2,47.2C89.2,47.2,87.8,45.4,87.3,48.6C86.9,51.1,86.4,54,85.7,55.4C84.2,58.2,86.3,62.5,85.1,63.2C83.6,64.2,83.7,61.1,83,59.9C83,59.9,80.3,54.3,80.3,53.2C80.3,52.1,80.1,51.5,79.6,51.5C79,51.5,78.4,51.8,77.3,50.9C74.5,48.9,75.6,50.1,75.7,49.8C75.9,49.6,74.3,49.6,74.3,48.3C74.3,47,70.1,50.2,68.2,49.2C66.3,48.3,66.7,47.8,66.2,47.8C65.7,47.8,65.1,47.8,64.7,48.3C64.2,48.8,63.1,48.8,62.1,48.3C61.1,47.8,59.2,44.8,58,46.7C58,46.7,58.7,48.9,60.6,49.9C61.5,50.4,64.3,51.5,66.2,49.7C67.3,48.6,66.1,50.4,68.2,50.9C70.4,51.5,69.8,55.4,67.2,58C64.7,60.5,64.8,61.7,63.3,62.4C61.9,63.2,60.2,64.2,59.6,64.8C58.9,65.5,57.9,66.1,57,62.2C56.1,58.2,56.6,59.3,54.5,58.9C52.4,58.4,51.9,56,51,55.2C50,54.5,46.4,51,46.4,51L44.8,50.7z" id="shape3" transform="translate(27.22,-0.02)" stroke="#ffffff" fill="transparent"/>
            <path d="M34.1,.5C34.1,.5,29.1,2.3,28.2,2.9C27.3,3.4,27.4,4.3,25.9,4.3C24.4,4.3,24.4,4.6,23.9,5.5C23.4,6.4,22.7,6.8,22,7.1C21.2,7.4,20.8,7.6,20.5,8.3C20.1,9,18.4,10.5,17.7,10.5C16.9,10.5,16.7,11.1,16.7,11.5C16.7,12,16.9,12.1,14.4,13.9C11.9,15.7,10.8,16.1,9.9,16.7C7.7,18.3,7.9,18.6,5.4,20.4C2.6,22.6,1.6,26.6,.7,27.6C-0.2,28.5,-0.4,26,.7,23.6C1.6,21.6,4.9,17.5,6.1,16.2C7.3,15,13.7,9.4,14.4,8.7C15.1,7.9,28,.9,34.1,.2C40.2,-0.4,34.1,.5,34.1,.5z" id="shape4" transform="translate(12.42,0.76)" stroke="#ffffff" fill="transparent"/>
            <path d="M7.1,3.8C7.1,3.8,6,6,5.3,7.8C5,8.5,5.5,11,4.9,12.3C4.3,13.6,4.1,14.6,4.1,14.6C4.1,14.6,3.5,16.9,3.5,18.4C3.5,19.8,1.9,20.4,1.9,19.2C1.9,18,2.4,16,2.8,14.9C3.3,13.5,1.8,17,1.8,17.3L.6,22.4C.2,22.8,0,21.6,0,21.6C0,21.6,1.4,10.8,9,0C9.3,-0.3,7.1,3.8,7.1,3.8z" id="shape5" transform="translate(-0.01,26.41)" stroke="#ffffff" fill="transparent"/>
            <path d="M0,.1C.6,.1,0,.1,1.6,1C2,1.2,3.8,3.2,4.1,3.6C4.4,3.9,6.1,4.6,9,9.4C9,9.4,12.1,10.2,12.7,11C13.2,11.8,14.2,10.6,14.9,11C15.7,11.4,21.4,12.2,21.4,18.2C21.4,18.2,21.6,20.1,23.7,22.3C25.8,24.4,25.6,26.2,25.6,27.7C25.6,29.1,30.3,33,33.6,34.9C37,36.9,40.8,38.8,41,38.8C41.2,38.7,13.3,32.7,0,.1C0,-0.2,0,.1,0,.1z" id="shape6" transform="translate(1.43,83.6)" stroke="#ffffff" fill="transparent" />
            <path d="M4.6,0C4.6,0,6.1,2.1,5.3,2.5C4.6,2.9,4.6,5,4.6,3.7C4.6,3.7,4.4,6.7,3.4,8.6C2.4,10.4,3.5,11.6,1.6,12C-0.3,12.4,-0,11.1,-0,10C-0,9,1.1,6.7,.8,5.9C.5,5,.9,3.6,2.1,3C3.4,2.5,3.7,.9,4.6,0z" id="shape7" transform="translate(87.84,88.61)" stroke="#ffffff" />
        </g>
        <g  fill="transparent" transform="translate(49.89,14.44)">
            <path d="M1.9,.9C1.9,.9,1.4,1.3,3.4,.2C5.5,-0.8,3,1.7,3,1.7C3.9,2.1,5.7,1.1,6.2,1.1C6.7,1.1,8.8,1.3,9.7,1.7C10.5,2.1,13.1,1.9,12.2,2.9C11.3,3.8,9.7,4.1,9.1,4.1C8.5,4.1,7.2,4.4,6.7,4.4C6.2,4.4,5.3,4.3,4.8,4.8C4.3,5.4,1.4,6.2,1.4,6.2C1.4,6.2,.6,6.9,.2,5.5C-0.1,4.1,-0.1,3.8,.2,3.5C.6,3.2,.2,3.7,.2,2.9C.2,2.1,1.4,1.7,1.9,.9z" id="shape8" transform="translate(15.64,18.28)" fill="transparent" />
            <path d="M2.4,.6C2,.6,2.3,.3,1.5,.9C.8,1.4,.4,1.5,.3,1.8C.1,2.1,.6,2.5,.3,2.9C-0.1,3.2,-0.1,4.2,.3,4.2C.6,4.2,1.5,4.4,1.5,4.7C1.5,5,2.4,5.4,2.4,5.6C2.4,5.9,3.1,6.4,3.1,6.4C3.1,6.4,3.1,6.2,3.1,6.7C3.1,7.2,4,8.1,4,8.1C4,8.1,4,8.9,4,9.2C4,9.5,4.8,10.1,5.6,10.1C6.4,10.1,7.5,10.1,7.9,10.1C8.3,10.1,8.3,10.1,8.3,9.7C8.4,9.2,7.9,8.2,7.5,7.7C7.1,7.3,6.6,6.3,6.6,6.3L7.9,5.5C7.9,5.8,6.6,4.6,6.6,4.6L6,5.9L4.8,4.4C4.8,4.4,3.7,3.9,3.3,3.9C2.9,3.9,3.1,2.5,3.1,2.5L5,1.8L4.8,.6C4.8,.6,4.5,.8,4,.3C3.5,-0.2,3.1,-0.1,2.4,.6z" id="shape9" transform="translate(31.03,14.32)" fill="transparent"/>
            <path d="M6.2,-0C6.2,-0,4.2,-0,4.2,.6C4.2,1.3,2.4,4,2,4.3C1.6,4.7,4.7,6.5,2.7,8.2C.6,9.9,3,10.8,3,10.8L1.3,11.5C1.3,11.5,.9,12.3,.5,12.3C.1,12.3,0,13.7,0,13.7C0,13.7,3.6,12,4.2,12C4.8,12,5.7,11.7,5.7,9.9C5.7,8,6.4,7.7,6.6,7.8C6.9,7.9,7.7,6.7,7.7,6.7C7.7,6.7,9,5,10.4,4.3C11.8,3.7,10.7,3.2,7.7,5.1C4.6,7.1,4.9,4.6,4.9,3.8C4.9,2.9,5.2,1.7,5.7,1.2C6.2,.6,6.2,-0,6.2,-0z" id="shape10" transform="translate(-0.01,0)" fill="transparent"/>
        </g>
    </g>
    <style>
        
   .earth {
        
        animation: earthroll linear infinite 8s ;
        animation-delay: 2s;
        }
        
        @keyframes earthroll {
        0% { transform: rotate(0);}
        30% { transform: 
        rotate(-0.5turn);
                }
        50%{transform: 
        rotate(5turn) scale(0.5, 0.5);
        }
        60%{transform:  rotate(3turn);}
        75%{ transfom: rotate(-2turn) scale(1.2, 1.2);}
        100%{
        transform: rotate(9turn);
        }
        }

    </style>
</svg>

