<svg xmlns:xlink="http://www.w3.org/1999/xlink" viewBox="0 0 84 134" width="84" xmlns="http://www.w3.org/2000/svg" height="134">
    <defs/>
    <g transform="translate(1.03,1)">
        <path transform="translate(12.85,106.01)" id="shape1" d="M0,13C0,5.8,12.6,0,28.1,0C43.7,0,56.3,5.8,56.3,13C56.3,20.2,43.7,26,28.1,26C12.6,26,0,20.2,0,13zM28.1,2.8C28.1,2.8,18.9,2.7,12.2,5.9C5.9,9,6.1,13,6.1,13C6.1,13,5.6,16.8,12.4,20.1C19.2,23.4,28.1,23.2,28.1,23.2C28.1,23.2,37,23.5,44.3,20C50.1,17.3,50.2,13,50.2,13C50.2,13,50.2,8.9,43.9,5.8C37.3,2.7,28.1,2.8,28.1,2.8z" stroke="#eb6d71" fill="#eb6d71"/>
        <g>
            <path transform="translate(28.02,27.56)" id="shape2" d="M0,12.9C0,5.8,5.8,0,13,0C20.1,0,26,5.8,26,12.9C26,20.1,20.1,25.9,13,25.9C5.8,25.9,0,20.1,0,12.9z" stroke="#00b050" fill="#00b050"/>
            <path id="shape3" d="M41,121.7L7.2,63.5C-0.9,52.6,0,38.4,0,38.4C1.4,18.8,15.9,8.5,15.9,8.5C33.4,-5.6,54.5,2.1,54.5,2.1C67.9,6.4,80.3,19.1,81.9,35.9C83.4,52.8,75.2,63.6,75.2,63.6L41,121.7zM15,40.5C15,54.8,26.7,66.4,41,66.4C55.4,66.4,67,54.8,67,40.5C67,26.2,55.4,14.6,41,14.6C26.7,14.6,15,26.2,15,40.5z" stroke="#00b050" fill="#00b050"/>
        </g>
    </g>
</svg>
