<?xml version="1.0" ?><svg data-name="Layer 1" id="Layer_1" viewBox="0 0 130 130" xmlns="http://www.w3.org/2000/svg"><defs><style>.cls-1,.cls-6{fill:#7cbaa8;}.cls-1,.cls-5{opacity:0.35;}.cls-2{fill:#353949;}.cls-3{fill:#eaeae9;}.cls-4{fill:#45ba8e;}.cls-5{fill:#ccc;}</style></defs><title/><circle class="cls-1" cx="62" cy="55.47" r="46.5"/><path class="cls-2" d="M37.64,122.53c-5.73,0-10.4-3.74-10.4-8.33a1.5,1.5,0,0,1,3,0c0,2.94,3.32,5.33,7.4,5.33s7.4-2.39,7.4-5.33a1.5,1.5,0,0,1,3,0C48,118.79,43.38,122.53,37.64,122.53Z"/><path class="cls-2" d="M55.44,122.53c-5.73,0-10.4-3.74-10.4-8.33a1.5,1.5,0,0,1,3,0c0,2.94,3.32,5.33,7.4,5.33s7.4-2.39,7.4-5.33a1.5,1.5,0,0,1,3,0C65.84,118.79,61.18,122.53,55.44,122.53Z"/><path class="cls-2" d="M73.24,122.53c-5.73,0-10.4-3.74-10.4-8.33a1.5,1.5,0,0,1,3,0c0,2.94,3.32,5.33,7.4,5.33s7.4-2.39,7.4-5.33a1.5,1.5,0,0,1,3,0C83.64,118.79,79,122.53,73.24,122.53Z"/><path class="cls-2" d="M91,122.53c-5.73,0-10.4-3.74-10.4-8.33a1.5,1.5,0,0,1,3,0c0,2.94,3.32,5.33,7.4,5.33s7.4-2.39,7.4-5.33a1.5,1.5,0,0,1,3,0C101.44,118.79,96.78,122.53,91,122.53Z"/><path class="cls-2" d="M19.84,122.53H11.19a1.5,1.5,0,1,1,0-3h8.65c4.08,0,7.4-2.39,7.4-5.33a1.5,1.5,0,0,1,3,0C30.24,118.79,25.58,122.53,19.84,122.53Z"/><path class="cls-2" d="M117.5,122.53h-8.65c-5.73,0-10.4-3.74-10.4-8.33a1.5,1.5,0,0,1,3,0c0,2.94,3.32,5.33,7.4,5.33h8.65a1.5,1.5,0,0,1,0,3Z"/><path class="cls-3" d="M11.29,43.71a3.34,3.34,0,0,1,0-.34,5.44,5.44,0,0,1,7.91-4.86,9.49,9.49,0,0,1,17.31,4.56H39.3A5.94,5.94,0,1,1,39.3,55H13.94a5.94,5.94,0,0,1-2.65-11.25Z"/><path class="cls-2" d="M39.3,56.07H13.94A7.44,7.44,0,0,1,9.79,42.46,7,7,0,0,1,16.72,36a6.87,6.87,0,0,1,2,.28,11,11,0,0,1,19.11,4.87H39.3a7.44,7.44,0,1,1,0,14.89ZM16.72,39A4,4,0,0,0,12.77,43s0,.07,0,.11A1.6,1.6,0,0,1,12,44.66a4.44,4.44,0,0,0,2,8.41H39.3a4.44,4.44,0,1,0,0-8.89H36.49A1.5,1.5,0,0,1,35,42.81,8,8,0,0,0,20.41,39a1.5,1.5,0,0,1-1.92.49A3.9,3.9,0,0,0,16.72,39Zm-5.42,4.28h0Z"/><path class="cls-3" d="M117.84,24.77a4.21,4.21,0,0,0,0-.43,6.87,6.87,0,0,0-10-6.13A12,12,0,0,0,86.05,24H82.5a7.5,7.5,0,0,0,0,15h32a7.49,7.49,0,0,0,3.34-14.2Z"/><path class="cls-2" d="M114.5,40h-32a9,9,0,0,1,0-18h2.24a13.48,13.48,0,0,1,23.66-6.08,8.26,8.26,0,0,1,2.6-.42,8.39,8.39,0,0,1,8.36,7.94A9,9,0,0,1,114.5,40Zm-32-15a6,6,0,0,0,0,12h32a6,6,0,0,0,2.67-11.36,1.5,1.5,0,0,1-.82-1.49V24a1.73,1.73,0,0,0,0-.18A5.38,5.38,0,0,0,111,18.47a5.31,5.31,0,0,0-2.42.58,1.5,1.5,0,0,1-1.92-.49,10.48,10.48,0,0,0-19.11,5A1.5,1.5,0,0,1,86.05,25Z"/><polyline class="cls-3" points="45.15 62.9 33.6 48.27 20.77 48.27 30.1 62.9"/><polyline class="cls-4" points="47.73 67.02 36.19 52.4 23.35 52.4 32.69 67.02"/><polyline class="cls-3" points="86.31 62.82 82.15 52.48 56.34 52.48 53.71 62.82"/><polyline class="cls-4" points="88.31 68.15 83.72 56.73 55.22 56.73 52.31 68.15"/><path class="cls-3" d="M119.81,76.15H84.06l-8.5,9h-64l3.5,23h82.5A112.26,112.26,0,0,0,119.81,76.15Z"/><path class="cls-5" d="M113.81,77.08A211.51,211.51,0,0,1,95.15,103l-80.88,0,.79,5.21,81.51.93a112.26,112.26,0,0,0,22.25-32Z"/><path class="cls-6" d="M13.25,89.34h64l8.5-9h32.57q.76-1.53,1.49-3.12H84.06l-8.5,9h-64l1,6.87h1.21Z"/><polygon class="cls-3" points="106.81 76.15 93.56 62.9 24.65 62.9 16.09 85.65 75.56 85.15 84.06 76.15 106.81 76.15"/><polygon class="cls-5" points="102.98 72.12 82.27 72.12 73.48 81.12 18.15 81.23 16.09 85.45 75.57 84.95 84.07 75.95 106.82 75.95 102.98 72.12"/><path class="cls-2" d="M97.56,109.65H15.06a1.5,1.5,0,0,1-1.48-1.27l-3.5-23a1.5,1.5,0,0,1,1.48-1.73H74.92L83,75.12a1.5,1.5,0,0,1,1.09-.47h35.75a1.5,1.5,0,0,1,1.37,2.12,112.65,112.65,0,0,1-22.59,32.47A1.5,1.5,0,0,1,97.56,109.65Zm-81.21-3H97a113.11,113.11,0,0,0,20.5-29H84.71l-8.06,8.53a1.5,1.5,0,0,1-1.09.47H13.31Z"/><path class="cls-2" d="M16.09,86a1.5,1.5,0,0,1-1.39-2.05l8.55-21.58a1.5,1.5,0,0,1,1.39-.95H93.56a1.5,1.5,0,0,1,1.06.44l13.25,13.25a1.5,1.5,0,0,1-2.12,2.12L92.94,64.4H25.67L17.49,85A1.5,1.5,0,0,1,16.09,86Z"/><path class="cls-2" d="M86.56,64.4a1.5,1.5,0,0,1-1.39-.94L81.32,53.9h-24l-2.39,9.37A1.5,1.5,0,0,1,52,62.53L54.68,52a1.5,1.5,0,0,1,1.45-1.13h26.2a1.5,1.5,0,0,1,1.39.94L88,62.34a1.5,1.5,0,0,1-1.39,2.06Z"/><path class="cls-2" d="M77.62,53.9A1.5,1.5,0,0,1,76.23,53L72.38,43.4h-10a1.5,1.5,0,0,1,0-3h11a1.5,1.5,0,0,1,1.39.94L79,51.84a1.5,1.5,0,0,1-1.39,2.06Z"/><path class="cls-2" d="M30.11,64.4a1.5,1.5,0,0,1-1.27-.69L19.51,49.08a1.5,1.5,0,0,1,1.26-2.31H33.6a1.5,1.5,0,0,1,1.18.57L46.32,62A1.5,1.5,0,1,1,44,63.83L32.88,49.77H23.51l7.86,12.32a1.5,1.5,0,0,1-1.26,2.31Z"/><path class="cls-2" d="M75.56,77.65H24.65a1.5,1.5,0,1,1,0-3H75.56a1.5,1.5,0,0,1,0,3Z"/><path class="cls-2" d="M78.81,70.64H50.1a1.5,1.5,0,0,1,0-3H78.81a1.5,1.5,0,0,1,0,3Z"/><path class="cls-2" d="M32.79,70.64h-3a1.5,1.5,0,1,1,0-3h3a1.5,1.5,0,0,1,0,3Z"/><path class="cls-2" d="M42.31,70.64h-3a1.5,1.5,0,0,1,0-3h3a1.5,1.5,0,0,1,0,3Z"/><path class="cls-2" d="M98.81,70.64H88.31a1.5,1.5,0,0,1,0-3h10.5a1.5,1.5,0,0,1,0,3Z"/><path class="cls-2" d="M97.08,93.65a5.9,5.9,0,1,1,5.9-5.9A5.91,5.91,0,0,1,97.08,93.65Zm0-8.8a2.9,2.9,0,1,0,2.9,2.9A2.9,2.9,0,0,0,97.08,84.85Z"/><path class="cls-2" d="M72,95.72H43.71a1.5,1.5,0,1,1,0-3H72a1.5,1.5,0,0,1,0,3Z"/><path class="cls-2" d="M23.52,95.72H20.13a1.5,1.5,0,0,1,0-3h3.39a1.5,1.5,0,1,1,0,3Z"/><path class="cls-2" d="M34.25,95.72H30.86a1.5,1.5,0,0,1,0-3h3.39a1.5,1.5,0,0,1,0,3Z"/><path class="cls-2" d="M73,16.5a1.5,1.5,0,0,1-1.49-1.38A5.06,5.06,0,0,0,66,10.48a1.5,1.5,0,1,1-.24-3,8.06,8.06,0,0,1,8.69,7.39,1.5,1.5,0,0,1-1.37,1.62Z"/><path class="cls-2" d="M72.9,16.5h-.12a1.5,1.5,0,0,1-1.37-1.62,8.06,8.06,0,0,1,8.69-7.39,1.5,1.5,0,1,1-.24,3,5.06,5.06,0,0,0-5.45,4.64A1.5,1.5,0,0,1,72.9,16.5Z"/><path class="cls-2" d="M109,55.5a1.5,1.5,0,0,1-1.49-1.38A5.06,5.06,0,0,0,102,49.48a1.5,1.5,0,0,1-.24-3,8.06,8.06,0,0,1,8.69,7.39,1.5,1.5,0,0,1-1.37,1.62Z"/><path class="cls-2" d="M108.9,55.5h-.12a1.5,1.5,0,0,1-1.37-1.62,8.06,8.06,0,0,1,8.69-7.39,1.5,1.5,0,1,1-.24,3,5.06,5.06,0,0,0-5.45,4.64A1.5,1.5,0,0,1,108.9,55.5Z"/><path class="cls-2" d="M26.48,28A1.5,1.5,0,0,1,25,26.62,5.07,5.07,0,0,0,19.53,22a1.5,1.5,0,0,1-.24-3A8.06,8.06,0,0,1,28,26.38,1.5,1.5,0,0,1,26.6,28Z"/><path class="cls-2" d="M26.41,28h-.12a1.5,1.5,0,0,1-1.37-1.62A8.06,8.06,0,0,1,33.6,19a1.5,1.5,0,1,1-.24,3,5.07,5.07,0,0,0-5.45,4.64A1.5,1.5,0,0,1,26.41,28Z"/></svg>