<svg xmlns="http://www.w3.org/2000/svg" xmlns:xlink="http://www.w3.org/1999/xlink" viewBox="0 0 100 98.026" height="98" width="100">
    <defs/>
    <g transform="translate(1,1)">
        <path d="M0,1.5C-0.1,1.5,.7,5.4,.4,8.8C.1,12.2,-0,14.4,1.7,14.6C3.5,14.8,8.8,7.5,9.3,0C9.3,0,4.5,-0.3,0,1.5z" id="shape1" transform="translate(50.51,46.05)" stroke="#445771" fill="#445771"/>
        <path d="M36.9,10.1C36.9,10.1,33.5,5.9,28.1,2.3C28.1,1.9,26.7,1.6,27.4,.4C28,-0.7,44.1,0,53.9,9.5C53.9,9.5,69,7.8,82.4,17.5C82.4,17.5,93,24.8,91.7,33.2C91.7,33.2,98.9,37.2,97.9,41.9C96.9,46.6,93,47.5,86.9,46.9C80.8,46.3,63.5,44.6,46.8,48.4C30.1,52.3,25.8,56.1,21.5,59.2C17.3,62.2,13.3,68.3,16,71.1C18.8,74,22.1,70.2,28.4,73.1C34.7,75.9,37.1,81.5,36.3,82C35.5,82.4,32,81.1,27.3,81.6C22.5,82.1,22.4,82.9,21.2,81.6C19.9,80.4,19.2,79.6,18.7,79.7C18.1,79.8,19.8,82.9,19.3,83.7C18.7,84.5,14.8,86,12.7,87.9C10.7,89.7,9.5,92.6,9.8,96C9.8,96,9.2,96.4,7.1,94.2C5,92,2.4,85.7,5.2,78.5C5.2,78.5,6.1,76.7,5.2,75C4.2,73.4,-4,55.2,2.4,39.7C8.8,24.3,24.8,12.5,36.9,10.1z" id="shape2" stroke="#445771" fill="#445771"/>
        <path d="M0,3.9C0,1.8,1.8,0,4,0C6.1,0,7.9,1.8,7.9,3.9C7.9,6.1,6.1,7.8,4,7.8C1.8,7.8,0,6.1,0,3.9z" id="shape3" transform="translate(79.42,25.84)" stroke="#ffffff" fill="#ffffff"/>
        <path d="M0,3.3C0,1.5,1.5,0,3.3,0C5.1,0,6.6,1.5,6.6,3.3C6.6,5.1,5.1,6.5,3.3,6.5C1.5,6.5,0,5.1,0,3.3z" id="shape4" transform="translate(80.07,26.49)" stroke="#445771" fill="#445771"/>
        <path d="M0,1.5C0,.7,.7,0,1.5,0C2.4,0,3.1,.7,3.1,1.5C3.1,2.4,2.4,3,1.5,3C.7,3,0,2.4,0,1.5z" id="shape5" transform="translate(82.77,27.5)" stroke="#ffffff" fill="#ffffff"/>
        <path d="M0,.9C0,.4,.4,0,.9,0C1.4,0,1.9,.4,1.9,.9C1.9,1.4,1.4,1.8,.9,1.8C.4,1.8,0,1.4,0,.9z" id="shape6" transform="translate(81.1,30.08)" stroke="#ffffff" fill="#ffffff"/>
        <path d="M57,0C57,0,64.7,5,76.4,2.7C75.3,7.5,71.5,8.4,65.4,7.8C59.3,7.2,42,5.5,25.3,9.3C8.6,13.1,4.2,17,0,20.1C0,20.1,-0.1,14.6,12.1,7.3C24.3,0,42.9,.8,57,0z" id="shape7" transform="translate(21.54,39.09)" stroke="#ffffff" fill="#ffffff"/>
        <path d="M14.1,.2C14.1,.2,9.8,2,7,5.4C4.1,8.9,1.6,16.4,.6,19.1C-0.3,21.9,-0.2,22.9,1.1,23C2.4,23.1,9.6,20.6,15.2,13.6C20.8,6.5,22.4,4.8,22.1,3.6C21.8,2.4,18.7,-0.8,14.1,.2z" id="shape8" transform="translate(29.23,38.16)" stroke="#445771" fill="#445771"/>
    </g>
</svg>
