<svg xmlns="http://www.w3.org/2000/svg" xmlns:xlink="http://www.w3.org/1999/xlink" viewBox="0 0 190 68" height="68" width="190">
    <defs/>
    <g transform="translate(1.08,1)">
        <path d="M0,27.6C0,27.6,13.8,22.4,30.6,19.3C30.6,19.3,53.5,15.6,64.6,16.1C64.6,16.1,70.2,16.4,71.7,13.7C71.7,13.7,77.8,1.7,85.4,0C85.4,0,87,.1,86,1.7C86,1.7,80.4,13.2,89.6,16.6C89.6,16.6,118.9,20.6,150.7,27.7C150.7,27.7,167.5,13.5,186.8,12.1C186.8,12.1,189.4,12.7,187.1,13.8C187.1,13.8,172.6,23.9,167.3,30.9C167.3,30.9,163.6,36.4,173.8,52.5C173.8,52.5,163.9,48.8,150.8,32.2C150.8,32.2,124.6,33.6,104,38.7C83.4,43.8,63.5,43.8,63.5,43.8C63.5,43.8,33.3,41.5,23.8,36.8C23.8,36.8,21.4,36,19.6,36C17.8,36,14.7,35.1,12.6,33.7C12.6,33.7,15.5,31.6,19.1,31.9C19.1,31.9,16,30.9,10,32.9C10,32.9,-1.1,28.4,0,27.6z" id="shape1" transform="translate(0,0.21)" stroke="#eeeeee" fill="#eeeeee"/>
        <path d="M-0,1.6C-0,.7,.7,-0,1.6,-0C2.5,-0,3.3,.7,3.3,1.6C3.3,2.5,2.5,3.3,1.6,3.3C.7,3.3,-0,2.5,-0,1.6z" id="shape2" transform="translate(12.31,26.45)" stroke="#ffffff" fill="#ffffff"/>
        <g>
            <path d="M0,1.8C0,1.8,1.1,20,11.9,27.2C11.9,27.2,14.9,29,14.3,25.9C14.3,25.9,13,19.7,12.7,17.1C12.7,17.1,10.6,7.2,16.4,4.4C16.4,4.4,16.9,.2,8.3,0C8.3,0,1.7,.2,0,1.8z" id="shape3" transform="translate(48.33,38.27)" stroke="#4f8da2" fill="#4f8da2"/>
            <path d="M0,27.8C0,27.8,15.7,22.1,30.6,19.6C45.5,17,61.2,16,64.7,16.3C64.7,16.3,70.4,15.9,71.7,13.9C73.3,11.3,78.3,1.9,85.7,0C85.7,0,87,.2,86,1.9C86,1.9,80.5,13.8,89.6,16.9C89.6,16.9,136,23.9,150.8,28C150.8,28,167.7,13.5,186.9,12.3C186.9,12.3,189.2,12.8,187.2,14C187.2,14,169.9,26.8,167.4,31.1C164.9,35.4,170,47.2,173.8,52.7C173.8,52.7,164.1,49.2,150.9,32.4C150.9,32.4,158.5,40,163.5,43.3C163.5,43.3,158.2,37.5,156.4,33.6C156.4,33.6,166.4,31.1,169.8,22.6C169.8,22.6,160.3,29,154,29.7C154,29.7,151.3,30.2,147.9,29.7C147.9,29.7,141.1,29.4,137.4,29.1C133.8,28.9,87.7,30.1,72.6,29.7C57.5,29.3,37.8,26.3,29.9,27.5C29.9,27.5,20,23.4,0,27.8z" id="shape4" stroke="#4f8da2" fill="#4f8da2"/>
            <path d="M-0,.9C-0,.4,.4,-0,.9,-0C1.5,-0,1.9,.4,1.9,.9C1.9,1.5,1.5,1.9,.9,1.9C.4,1.9,-0,1.5,-0,.9z" id="shape5" transform="translate(12.58,27.48)" stroke="#4f8da2" fill="#4f8da2"/>
        </g>
    </g>
</svg>
